<?xml version="1.0" encoding="UTF-8"?>
<svg version="1.1" xmlns="http://www.w3.org/2000/svg" width="1080" height="1080">
<path d="M0 0 C37.37511553 0.15098584 75.19816824 4.29780894 111.5 13.1875 C112.61584473 13.45288574 113.73168945 13.71827148 114.88134766 13.99169922 C156.71752449 23.9862621 197.8211103 40.33799612 233.83447266 64.08935547 C235.40612201 65.12560272 236.98983176 66.14349115 238.57421875 67.16015625 C254.9650983 77.81751051 270.2190875 90.06317395 284.4921875 103.3984375 C286.88773026 105.63258374 289.3271878 107.8030554 291.8125 109.9375 C297.897159 115.21683649 303.42095019 120.96516255 308.6640625 127.07421875 C310.67005045 129.38323893 312.74060935 131.62499945 314.8125 133.875 C319.58752271 139.17519441 323.9350657 144.75185544 328.20410156 150.45898438 C329.4888082 152.17257198 330.78689465 153.87539164 332.0859375 155.578125 C389.01093289 230.90269361 410.19217438 328.07004688 441.34057617 443.19750977 C442.97206598 449.27002349 444.66991639 455.31929622 446.41796875 461.359375 C447.92930038 466.70632444 449.37039144 472.07152378 450.8125 477.4375 C451.11285156 478.55423096 451.41320312 479.67096191 451.72265625 480.8215332 C453.2455678 486.49171686 454.75986929 492.16404486 456.26171875 497.83984375 C459.5263658 510.13793319 462.99784929 522.34048174 466.7578125 534.49609375 C468.23505831 539.28437937 469.63932608 544.09070787 471.0222168 548.90698242 C475.00737959 562.77690055 479.32781515 576.52519965 483.85351562 590.22796631 C484.52052104 592.24970054 485.18411864 594.27253541 485.84765625 596.29541016 C505.46771079 661.84898685 505.46771079 661.84898685 552.09790039 708.26660156 C567.51486686 715.75039998 585.20851873 716.50535251 601.5 711.1875 C611.25250174 707.2983926 619.63065406 702.15312247 627.5 695.1875 C630.47 692.7125 630.47 692.7125 633.5 690.1875 C640.1 696.7875 646.7 703.3875 653.5 710.1875 C649.39366911 720.45332724 641.01410136 728.24234892 633.5 736.1875 C632.695625 737.04601562 631.89125 737.90453125 631.0625 738.7890625 C620.25317532 749.98951406 607.61418042 758.89885292 594.5 767.1875 C593.46230469 767.85265625 592.42460938 768.5178125 591.35546875 769.203125 C574.85613323 779.21258625 556.20124326 786.5203323 537.5 791.1875 C536.14190289 791.54548114 534.78383035 791.9035555 533.42578125 792.26171875 C522.25065156 795.12141857 510.93485807 796.75315422 499.5 798.1875 C498.46383545 798.33324463 498.46383545 798.33324463 497.40673828 798.48193359 C490.09045145 799.43563632 482.74299129 799.43113843 475.375 799.4375 C474.31687103 799.43851212 474.31687103 799.43851212 473.23736572 799.43954468 C409.33281198 799.34305571 351.88990972 770.95730586 306.5 727.1875 C305.91444336 726.62385742 305.32888672 726.06021484 304.72558594 725.47949219 C297.95248046 718.92358945 291.48768188 712.2950547 285.63671875 704.88671875 C283.3437893 701.99016619 280.95833609 699.18685724 278.5625 696.375 C273.16605423 689.89593394 268.2546157 683.14831564 263.5 676.1875 C262.87254883 675.27484375 262.87254883 675.27484375 262.23242188 674.34375 C248.93511669 654.85456989 237.61918425 633.93486337 228.5 612.1875 C228.0359375 611.09953125 227.571875 610.0115625 227.09375 608.890625 C226.30565442 607.02142395 225.52759575 605.14794537 224.76171875 603.26953125 C223.7419229 600.77845099 222.69980233 598.30031233 221.64453125 595.82421875 C220.99211672 594.27867571 220.33977277 592.73310287 219.6875 591.1875 C219.21546143 590.09078979 219.21546143 590.09078979 218.73388672 588.97192383 C217.25240427 585.43538889 216.5 583.07776228 216.5 579.1875 C160.07 579.1875 103.64 579.1875 45.5 579.1875 C54.63179656 605.32575339 54.63179656 605.32575339 64.5 631.1875 C65.304375 633.3325 66.10875 635.4775 66.9375 637.6875 C71.53253635 649.67264258 77.36158741 661.15624518 83.17871094 672.58642578 C84.1545029 674.50735845 85.12583945 676.43055588 86.09472656 678.35498047 C105.11171175 716.07711034 127.62728256 751.962185 155.70483398 783.65844727 C157.89793002 786.16195977 159.43572065 787.99466196 160.5 791.1875 C47.31 791.1875 -65.88 791.1875 -182.5 791.1875 C-182.5 765.20390991 -182.5 765.20390991 -181.375 753.0625 C-181.27896988 752.00698441 -181.27896988 752.00698441 -181.18099976 750.93014526 C-177.54331283 711.60988317 -168.53127956 673.03420651 -157.5 635.1875 C-157.19658691 634.13433594 -156.89317383 633.08117187 -156.58056641 631.99609375 C-145.78602111 594.75986412 -131.22166224 558.66464356 -116.2265625 522.953125 C-115.90245895 522.18020615 -115.57835541 521.40728729 -115.24443054 520.61094666 C-112.79364327 514.80153626 -110.17749674 509.08848627 -107.4765625 503.390625 C-105.43731779 499.08151942 -103.46956909 494.74062579 -101.49658203 490.40087891 C-94.97334558 476.06841557 -88.06815076 462.03502206 -80.60766602 448.17089844 C-78.58745589 444.38185552 -76.66835965 440.5482295 -74.765625 436.69921875 C-70.71918839 428.56515362 -66.51897866 420.51912518 -62.25 412.5 C-61.88349335 411.81050262 -61.51698669 411.12100525 -61.13937378 410.41061401 C-54.82090581 398.53529973 -48.29667821 386.7967174 -41.5 375.1875 C-40.86553955 374.09840332 -40.86553955 374.09840332 -40.21826172 372.98730469 C-37.33582569 368.03989014 -34.42510646 363.10978589 -31.5 358.1875 C-31.03625977 357.40552246 -30.57251953 356.62354492 -30.09472656 355.81787109 C-23.68078168 345.01442286 -17.11810151 334.31978992 -10.375 323.71875 C-8.09785222 320.13863531 -5.84995531 316.54155705 -3.61450195 312.93530273 C1.57964838 304.56348233 6.97003983 296.34092168 12.5 288.1875 C12.99902832 287.45128418 13.49805664 286.71506836 14.01220703 285.95654297 C24.52428558 270.47170414 35.1423853 255.06799357 46.5 240.1875 C47.00708496 239.52186035 47.51416992 238.8562207 48.03662109 238.17041016 C53.58650302 230.886292 59.1438596 223.60821865 64.78515625 216.39453125 C66.49737148 214.19088294 68.18941849 211.97240827 69.88134766 209.75317383 C75.2951563 202.66548442 80.87911844 195.72473066 86.51953125 188.81640625 C87.01533691 188.19652832 87.51114258 187.57665039 88.02197266 186.93798828 C89.5 185.1875 89.5 185.1875 91.06787109 183.69873047 C92.76538808 182.1317011 92.76538808 182.1317011 94.5 179.1875 C94.42655837 175.9954389 93.50029054 173.20093019 92.5 170.1875 C92.09985355 168.7417154 91.70269799 167.29509956 91.30859375 165.84765625 C82.93888399 137.421642 73.61111143 108.3282574 59.5 82.1875 C58.97792969 81.18976563 58.45585937 80.19203125 57.91796875 79.1640625 C56.49108397 76.4759471 55.01591436 73.82631389 53.5 71.1875 C52.99210938 70.29804688 52.48421875 69.40859375 51.9609375 68.4921875 C42.73959171 53.15241322 29.61414919 40.48673316 12.19140625 35.1796875 C5.65503995 33.59371405 -0.81294852 32.79034908 -7.5 32.1875 C-7.52465504 27.79093827 -7.54283842 23.3944128 -7.55493164 18.99780273 C-7.55997121 17.50105082 -7.56680287 16.00430384 -7.57543945 14.50756836 C-7.58752159 12.36050193 -7.59323191 10.21350038 -7.59765625 8.06640625 C-7.60289307 6.7729126 -7.60812988 5.47941895 -7.61352539 4.14672852 C-7.40864883 -1.19372056 -4.78091384 0.02429326 0 0 Z M105.5 213.1875 C103.66372954 215.27838252 103.66372954 215.27838252 101.6875 218.0625 C101.29860596 218.59206299 100.90971191 219.12162598 100.5090332 219.66723633 C99.16546771 221.50216589 97.83259899 223.3445929 96.5 225.1875 C95.47931186 226.58994943 94.45847275 227.992289 93.4375 229.39453125 C90.10683046 233.97920116 86.80172909 238.58196591 83.5 243.1875 C82.99033691 243.89567871 82.48067383 244.60385742 81.95556641 245.33349609 C70.00170929 261.96139314 58.64620971 278.78090291 49.51660156 297.14794922 C48.65296043 298.88062406 47.76285483 300.60006766 46.8671875 302.31640625 C37.11011924 321.91051875 31.83784737 343.85424554 27.5 365.1875 C27.33274414 366.00428223 27.16548828 366.82106445 26.99316406 367.66259766 C22.82796718 388.42140146 22.09095637 409.00133911 22.125 430.125 C22.12538647 430.78586231 22.12577293 431.44672462 22.12617111 432.12761307 C22.14226635 454.03612264 22.87017768 475.55507205 26.5 497.1875 C26.630578 497.96611389 26.76115601 498.74472778 26.89569092 499.54693604 C29.790103 516.61849336 33.29622141 533.37238564 37.5 550.1875 C92.94 550.1875 148.38 550.1875 205.5 550.1875 C204.74774868 545.67399209 203.85639032 541.73930277 202.53125 537.40234375 C202.33549377 536.75833618 202.13973755 536.11432861 201.93804932 535.45080566 C201.29565983 533.34107794 200.64783235 531.2330621 200 529.125 C199.543002 527.62712364 199.08630086 526.12915669 198.62988281 524.63110352 C196.55431904 517.82952092 194.4582979 511.03470023 192.328125 504.25 C185.36366626 482.06617951 178.89680959 459.74247976 172.43286133 437.40856934 C171.5106112 434.22413932 170.58666909 431.04020547 169.66210938 427.85644531 C161.64618629 400.25050739 153.76696393 372.60888047 146.04150391 344.92016602 C142.73673968 333.08538245 139.37746861 321.26984261 135.91989136 309.47874451 C133.58371798 301.50460325 131.34207812 293.50797765 129.125 285.5 C125.889517 273.88031259 122.44111095 262.34238338 118.82495117 250.83447266 C114.89748614 238.33003422 111.1863716 225.76497998 107.5 213.1875 C106.84 213.1875 106.18 213.1875 105.5 213.1875 Z " fill="#FB7478" transform="translate(321.5,147.8125)"/>
<path d="M0 0 C1.13050781 0.48597656 2.26101563 0.97195312 3.42578125 1.47265625 C32.17100811 14.76143326 53.22891547 42.40947302 64.73828125 71.26171875 C70.22714535 87.5243904 70.5017563 106.37741042 63 122 C58.45036225 130.64431172 52.80619032 138.95375733 46 146 C45.34 146 44.68 146 44 146 C44 146.66 44 147.32 44 148 C42.34516392 149.49877503 40.62409488 150.92488473 38.875 152.3125 C37.37646484 153.51132812 37.37646484 153.51132812 35.84765625 154.734375 C34.90792969 155.48203125 33.96820312 156.2296875 33 157 C31.7670169 158.01622048 30.53681133 159.03584857 29.3125 160.0625 C28.1678125 161.0215625 28.1678125 161.0215625 27 162 C23.26275669 160.49506981 21.41731655 158.38337568 18.9375 155.25 C18.14730469 154.25871094 17.35710937 153.26742187 16.54296875 152.24609375 C15.69441253 151.16476814 14.84677333 150.08272235 14 149 C13.14202947 147.90747167 12.28395526 146.81502475 11.42578125 145.72265625 C10.07082752 143.99653367 8.71662804 142.2698427 7.36450195 140.54150391 C2.22113319 133.97802387 -3.04914104 127.51912824 -8.32080078 121.05859375 C-18.33376964 108.783317 -28.30868912 96.48264439 -38.05712891 83.99560547 C-40.26176373 81.17888694 -42.49718556 78.41328708 -44.83203125 75.703125 C-47 73 -47 73 -47 71 C-54.11278759 75.06445005 -58.97708141 81.10736684 -61.52734375 88.94140625 C-63.29492541 96.63988174 -61.74460728 103.13138047 -58 110 C-52.70422951 117.93193943 -46.5690527 125.1087221 -37.0625 127.5625 C-32.55449696 128.26990971 -29.28638336 127.55776871 -25.10546875 125.82421875 C-22.76201638 124.90683758 -20.47403631 124.43608668 -18 124 C-9.97961319 133.66536832 -2.02573018 143.36935375 5.66796875 153.29736328 C7.07494489 155.09579649 8.50439976 156.87467554 9.9375 158.65234375 C10.87513209 159.83062407 11.81263673 161.00900582 12.75 162.1875 C13.41467285 162.99912598 13.41467285 162.99912598 14.09277344 163.82714844 C15.296875 165.35546875 15.296875 165.35546875 17 168 C15.62639352 172.12081945 12.86795814 173.08873539 9.25 175.0625 C8.62867188 175.41376953 8.00734375 175.76503906 7.3671875 176.12695312 C2.21578782 179.00152109 -2.51069756 181.06707365 -8.3125 182.125 C-9.19550781 182.29257812 -10.07851563 182.46015625 -10.98828125 182.6328125 C-27.99476658 184.70623613 -44.13922867 177.74279766 -57.8125 168.125 C-70.99927099 157.75516273 -82.27354039 145.37820949 -91.84716797 131.64355469 C-92.79882746 130.28680506 -93.78732566 128.95597517 -94.78515625 127.6328125 C-108.20256822 109.24201316 -113.22013833 86.0043841 -110.609375 63.65625 C-107.44744765 48.90058902 -99.12081071 36.82727094 -89 26 C-88.42894531 25.34902344 -87.85789062 24.69804687 -87.26953125 24.02734375 C-77.41034861 13.30643307 -64.21894386 5.74568414 -51 0 C-50.00355469 -0.45503906 -49.00710938 -0.91007813 -47.98046875 -1.37890625 C-33.75595698 -6.84401318 -13.88246259 -6.31361659 0 0 Z M-25 52 C-22.47342931 56.57063656 -19.3161763 60.43243044 -16 64.4375 C-14.82981682 65.86383532 -13.66056252 67.29093316 -12.4921875 68.71875 C-11.90663086 69.43417969 -11.32107422 70.14960938 -10.71777344 70.88671875 C-6.40164137 76.19661631 -2.20646521 81.60315195 2 87 C2.73863281 87.94746094 3.47726562 88.89492187 4.23828125 89.87109375 C5.82749215 91.91254503 7.41504411 93.95524463 9 96 C14.05901994 93.71805909 16.96193064 90.17500246 19.3125 85.25 C21.0439472 77.06497687 20.52467896 70.1519119 16 63 C11.2282599 56.62495522 5.8338739 50.35845825 -2 48 C-10.47407773 46.90752308 -17.60459912 47.61754022 -25 52 Z " fill="#FB7478" transform="translate(733,139)"/>
<path d="M0 0 C3.22760323 1.61380161 3.61705838 5.0272393 4.72265625 8.27734375 C4.9844014 9.0275882 5.24614655 9.77783264 5.51582336 10.55081177 C6.37201284 13.01057827 7.21759627 15.47383632 8.0625 17.9375 C8.64546987 19.62379855 9.22896822 21.30991449 9.81298828 22.99584961 C10.69550244 25.54489147 11.57707609 28.09423485 12.4553833 30.64472961 C14.23471841 35.80949965 16.04791335 40.96050503 17.89453125 46.1015625 C18.31790771 47.29015869 18.74128418 48.47875488 19.17749023 49.70336914 C19.95984803 51.89795851 20.74942071 54.08999279 21.54711914 56.27905273 C21.8899292 57.25044189 22.23273926 58.22183105 22.5859375 59.22265625 C22.8854834 60.05547119 23.1850293 60.88828613 23.49365234 61.74633789 C24.06524377 64.29038827 23.93276324 65.58235305 23 68 C21.38342766 70.10443078 19.75423073 72.08040133 18 74.0625 C16.99142223 75.22720233 15.98362075 76.39257732 14.9765625 77.55859375 C14.47286133 78.13851074 13.96916016 78.71842773 13.45019531 79.31591797 C11.38209404 81.7175615 9.37630204 84.16757082 7.375 86.625 C6.66214844 87.50027344 5.94929687 88.37554687 5.21484375 89.27734375 C4.48394531 90.17582031 3.75304687 91.07429688 3 92 C1.31377838 94.06354879 -0.37442421 96.1254667 -2.0625 98.1875 C-2.81660156 99.10917969 -3.57070313 100.03085937 -4.34765625 100.98046875 C-4.89292969 101.64691406 -5.43820312 102.31335938 -6 103 C-1.04762174 104.79133858 3.89657448 105.89042726 9.046875 106.91015625 C9.89928772 107.08252304 10.75170044 107.25488983 11.62994385 107.43247986 C14.33592573 107.97938515 17.04285031 108.52140719 19.75 109.0625 C22.47136103 109.60749278 25.19247395 110.15360402 27.91290283 110.70323181 C29.60175389 111.04437123 31.29115397 111.38280603 32.98114014 111.71827698 C38.77508801 112.88754401 38.77508801 112.88754401 41 114 C42.09264254 116.70447591 43.07523022 119.38567271 44.01171875 122.14453125 C44.30303177 122.98352463 44.59434479 123.82251801 44.89448547 124.68693542 C45.83239798 127.39312584 46.76013293 130.10267992 47.6875 132.8125 C48.29293914 134.56599037 48.89905197 136.31924828 49.50585938 138.07226562 C50.41677408 140.70484673 51.32622617 143.33787913 52.23068237 145.97268677 C53.8024699 150.55100147 55.39317589 155.12138585 57.01806641 159.68115234 C57.34313675 160.59660324 57.66820709 161.51205414 58.00312805 162.45524597 C58.62585033 164.20575151 59.25230221 165.95493602 59.88298035 167.70259094 C60.16112076 168.48611435 60.43926117 169.26963776 60.72583008 170.0769043 C61.09590935 171.10789497 61.09590935 171.10789497 61.47346497 172.15971375 C62 174 62 174 62 177 C56.06901989 175.75338229 50.26192859 174.28262091 44.4609375 172.53125 C43.66923157 172.29461639 42.87752563 172.05798279 42.06182861 171.81417847 C39.49845435 171.0463905 36.93668079 170.27341757 34.375 169.5 C33.49704773 169.23632629 32.61909546 168.97265259 31.71453857 168.70098877 C18.37249827 164.69325991 5.08763812 160.53208577 -8.12744141 156.12304688 C-14.70387865 153.95248515 -21.16333942 152.13521 -28 151 C-28.5261792 151.75168457 -28.5261792 151.75168457 -29.06298828 152.51855469 C-29.56040527 153.22915039 -30.05782227 153.93974609 -30.5703125 154.671875 C-31.12992676 155.47133545 -31.68954102 156.2707959 -32.26611328 157.09448242 C-33.52225463 158.8889465 -34.77844068 160.68337928 -36.03466797 162.4777832 C-39.23246829 167.04567214 -42.42967932 171.61396985 -45.625 176.18359375 C-66.00612474 205.32656515 -66.00612474 205.32656515 -74.12109375 216.35546875 C-76.96974095 220.36489527 -79.60603842 224.51013772 -82.23828125 228.6640625 C-84 231 -84 231 -87 232 C-91.36189143 219.67661767 -95.69480283 207.34330417 -100 195 C-100.25658386 194.26563721 -100.51316772 193.53127441 -100.77752686 192.7746582 C-102.32770351 188.33488043 -103.85736795 183.88853747 -105.375 179.4375 C-105.76163818 178.32850342 -106.14827637 177.21950684 -106.54663086 176.0769043 C-107.06108765 174.55190308 -107.06108765 174.55190308 -107.5859375 172.99609375 C-107.8854834 172.12138428 -108.1850293 171.2466748 -108.49365234 170.34545898 C-109.05393187 167.75018154 -108.96510632 166.45518454 -108 164 C-106.21840033 161.7296173 -104.41961389 159.58413672 -102.5 157.4375 C-101.39227042 156.17271405 -100.28550679 154.90708148 -99.1796875 153.640625 C-98.6340918 153.01865234 -98.08849609 152.39667969 -97.52636719 151.75585938 C-94.77844066 148.5947769 -92.15225443 145.33657847 -89.51171875 142.0859375 C-86.17050372 137.98086771 -82.80379484 133.89701084 -79.4375 129.8125 C-78.80473145 129.04446045 -78.17196289 128.2764209 -77.52001953 127.48510742 C-76.01350979 125.65660351 -74.5068364 123.82823472 -73 122 C-80.69349115 120.18435039 -88.40467805 118.46937092 -96.1328125 116.80859375 C-97.94533265 116.41741105 -99.75783238 116.02613376 -101.5703125 115.63476562 C-104.3697745 115.03039255 -107.16959501 114.42800022 -109.97070312 113.83129883 C-112.71354614 113.24628851 -115.45453495 112.65319494 -118.1953125 112.05859375 C-119.03587189 111.88146347 -119.87643127 111.70433319 -120.74246216 111.52183533 C-121.5211264 111.3514827 -122.29979065 111.18113007 -123.10205078 111.00561523 C-123.78453888 110.85922104 -124.46702698 110.71282684 -125.17019653 110.56199646 C-127 110 -127 110 -130 108 C-131.11572266 105.5234375 -131.11572266 105.5234375 -132.1640625 102.375 C-132.55980469 101.20533691 -132.95554687 100.03567383 -133.36328125 98.83056641 C-133.78400935 97.55376206 -134.2045786 96.27690536 -134.625 95 C-135.06273137 93.69544102 -135.50154595 92.39124504 -135.94140625 91.08740234 C-136.84804333 88.39779481 -137.75003594 85.70669119 -138.64941406 83.01464844 C-141.07320149 75.78254131 -143.61301355 68.59021289 -146.13134766 61.390625 C-147.90315502 56.29227594 -149.5908625 51.21087304 -151 46 C-146.13148695 46.60049402 -141.59972455 47.57605589 -136.8984375 48.96875 C-136.23265182 49.16477814 -135.56686615 49.36080627 -134.88090515 49.56277466 C-132.71073701 50.20346482 -130.5428455 50.85149845 -128.375 51.5 C-126.84959192 51.95252673 -125.32411899 52.40483493 -123.79858398 52.85693359 C-113.01967491 56.06002076 -102.27627568 59.3716959 -91.54296875 62.72436523 C-83.00222679 65.38917681 -74.44748449 68.00182073 -65.875 70.5625 C-64.72394775 70.90941895 -63.57289551 71.25633789 -62.38696289 71.61376953 C-61.32856201 71.92813965 -60.27016113 72.24250977 -59.1796875 72.56640625 C-58.24882324 72.84427979 -57.31795898 73.12215332 -56.35888672 73.40844727 C-53.92033905 74.1216221 -53.92033905 74.1216221 -51 74 C-49.35585637 71.86506723 -47.92532182 69.77580402 -46.5 67.5 C-45.60147681 66.10858874 -44.70169604 64.71798893 -43.80078125 63.328125 C-43.33752441 62.60818359 -42.87426758 61.88824219 -42.39697266 61.14648438 C-40.22216216 57.80483217 -37.95730542 54.52755279 -35.6875 51.25 C-34.76148063 49.90771633 -33.83570461 48.56526474 -32.91015625 47.22265625 C-32.43723145 46.53703613 -31.96430664 45.85141602 -31.47705078 45.14501953 C-28.85119509 41.33166943 -26.23855023 37.50928934 -23.625 33.6875 C-23.0877832 32.90262207 -22.55056641 32.11774414 -21.99707031 31.30908203 C-19.1341288 27.12537244 -16.27654135 22.93811438 -13.42578125 18.74609375 C-12.8416748 17.88862549 -12.25756836 17.03115723 -11.65576172 16.14770508 C-10.53984572 14.50934759 -9.42549634 12.86992156 -8.31298828 11.22924805 C-5.67608265 7.36108774 -2.99482777 3.60528427 0 0 Z " fill="#FB7478" transform="translate(847,279)"/>
<path d="M0 0 C2.35856244 8.28606195 4.71506628 16.57270578 7.06919193 24.86002922 C8.16326631 28.71131751 9.2579575 32.56242786 10.35424805 36.41308594 C14.89012785 52.34673224 19.38948442 68.28527652 23.66323853 84.29173279 C25.28209726 90.35210913 26.93485184 96.40041027 28.65234375 102.43359375 C28.84711807 103.11814636 29.0418924 103.80269897 29.24256897 104.50799561 C30.00525554 107.18284214 30.77052852 109.85692695 31.53930664 112.5300293 C32.12206574 114.55942715 32.70003878 116.59013882 33.27734375 118.62109375 C33.60984131 119.7805249 33.94233887 120.93995605 34.28491211 122.13452148 C35 125 35 125 35 128 C22.03276824 133.23783576 14.18667656 133.21595367 1.3125 128.125 C-0.23554139 127.55582988 -1.7854876 126.99181761 -3.3371582 126.43261719 C-6.5836985 125.25672939 -9.81988003 124.05704326 -13.05078125 122.83886719 C-20.39812984 120.08542652 -27.83347497 117.58902368 -35.26449585 115.07254028 C-37.66949388 114.25611256 -40.0720376 113.43284753 -42.47387695 112.60717773 C-55.25722407 108.21584906 -68.09688311 104.02733648 -81 100 C-80.82460693 100.65145996 -80.64921387 101.30291992 -80.46850586 101.97412109 C-80.21979736 102.89789551 -79.97108887 103.82166992 -79.71484375 104.7734375 C-79.43463379 105.81395264 -79.15442383 106.85446777 -78.86572266 107.92651367 C-78.24116344 110.24684478 -77.61714974 112.56732279 -76.99365234 114.88793945 C-75.34563301 121.01865399 -73.68882967 127.14670578 -72.01171875 133.26953125 C-71.69533447 134.42984863 -71.3789502 135.59016602 -71.05297852 136.78564453 C-70.44615172 139.01019718 -69.83609507 141.23387194 -69.22241211 143.45654297 C-67.81366059 148.63521025 -66.58887135 153.66240972 -66 159 C-73.46785526 161.36174221 -80.9666318 163.60716501 -88.5 165.75 C-89.26489746 165.97260498 -90.02979492 166.19520996 -90.81787109 166.42456055 C-91.54828613 166.62992432 -92.27870117 166.83528809 -93.03125 167.046875 C-93.67642578 167.23088867 -94.32160156 167.41490234 -94.98632812 167.60449219 C-97.35630683 168.06998267 -99.58971529 168.02509551 -102 168 C-102.24532471 167.13509949 -102.49064941 166.27019897 -102.7434082 165.37908936 C-105.09523445 157.08782936 -107.44732341 148.79664393 -109.79968262 140.50553513 C-111.00803064 136.2465674 -112.21628908 131.98757432 -113.42431641 127.72851562 C-114.82425784 122.79288746 -116.22454369 117.85735709 -117.625 112.921875 C-117.85513731 112.11072298 -118.08527462 111.29957096 -118.32238579 110.46383858 C-121.34856088 99.79881782 -124.38886025 89.13797049 -127.44140625 78.48046875 C-130.00482028 69.52448321 -132.53531671 60.56330963 -134.9375 51.5625 C-135.22689453 50.49064453 -135.51628906 49.41878906 -135.81445312 48.31445312 C-137.00145114 43.8901878 -138.13979196 39.50106509 -139 35 C-135.98357037 32.98904691 -133.78885915 32.22498864 -130.3125 31.3125 C-129.31863281 31.04050781 -128.32476563 30.76851562 -127.30078125 30.48828125 C-120.72046333 29.51486144 -114.84720202 31.17854782 -108.64453125 33.30078125 C-107.61358589 33.64931152 -107.61358589 33.64931152 -106.56181335 34.00488281 C-105.08175974 34.50604488 -103.60284794 35.01058961 -102.125 35.51821899 C-98.1261733 36.89170747 -94.11907489 38.24074617 -90.11328125 39.59375 C-89.28381989 39.87471024 -88.45435852 40.15567047 -87.59976196 40.44514465 C-79.3809573 43.22370971 -71.12795298 45.89264928 -62.86932373 48.55001831 C-49.51103418 52.84890371 -36.21102235 57.26432113 -23 62 C-25.86013044 50.2682061 -28.99251365 38.62715502 -32.25 27 C-32.71373812 25.33859649 -33.17728073 23.67713839 -33.640625 22.015625 C-34.75817506 18.00978697 -35.87832899 14.00468599 -37 10 C-31.01597717 6.85217776 -24.99057825 5.1096023 -18.5 3.3125 C-16.82744141 2.83200195 -16.82744141 2.83200195 -15.12109375 2.34179688 C-14.03957031 2.03951172 -12.95804688 1.73722656 -11.84375 1.42578125 C-10.86599609 1.15161377 -9.88824219 0.87744629 -8.88085938 0.5949707 C-5.84209383 -0.03261164 -3.09404226 -0.04080008 0 0 Z " fill="#FB7478" transform="translate(928,566)"/>
<path d="M0 0 C1.01710781 2.70207557 1.91079437 5.36678517 2.75 8.125 C3.0087793 8.96087646 3.26755859 9.79675293 3.53417969 10.65795898 C7.67572412 24.25786167 11.35872954 38.02737652 14 52 C6.82842387 54.90448833 -0.5178266 56.81086177 -8 58.75 C-10.72627928 59.46491392 -13.45129225 60.18454554 -16.17578125 60.90625 C-16.85296707 61.08561096 -17.53015289 61.26497192 -18.2278595 61.44976807 C-23.90832551 62.96140652 -29.55251207 64.57797397 -35.1875 66.25 C-48.37366248 70.15662595 -61.62555964 73.82443689 -74.87817383 77.49780273 C-83.20790081 79.80912611 -91.5308063 82.13375774 -99.8203125 84.5859375 C-101.12727556 84.97014398 -102.43424158 85.35434034 -103.74121094 85.73852539 C-106.09368944 86.43380575 -108.44351803 87.13814286 -110.79003906 87.85327148 C-112.32869629 88.30682007 -112.32869629 88.30682007 -113.8984375 88.76953125 C-114.77161621 89.03354736 -115.64479492 89.29756348 -116.54443359 89.56958008 C-119.32582549 90.05711179 -121.26798833 89.61345993 -124 89 C-125.86063199 82.54307084 -127.71096836 76.08325582 -129.55419922 69.62133789 C-130.18236792 67.42372035 -130.81288463 65.22677255 -131.44580078 63.03051758 C-132.35548119 59.87234139 -133.25667187 56.71184767 -134.15625 53.55078125 C-134.44060913 52.57039383 -134.72496826 51.59000641 -135.01794434 50.57991028 C-135.27821411 49.65933334 -135.53848389 48.73875641 -135.80664062 47.7902832 C-136.15305603 46.5811602 -136.15305603 46.5811602 -136.50646973 45.34761047 C-137.04886912 42.76754079 -137.29588011 40.62548809 -137 38 C-134.24290116 36.16193411 -132.64644219 35.50036075 -129.5246582 34.69750977 C-128.58333542 34.45072983 -127.64201263 34.20394989 -126.67216492 33.94969177 C-125.62148331 33.67883255 -124.5708017 33.40797333 -123.48828125 33.12890625 C-121.11216462 32.50254156 -118.73672378 31.87360995 -116.36181641 31.24267578 C-115.71230987 31.07017146 -115.06280333 30.89766714 -114.39361477 30.71993542 C-105.43872261 28.33110316 -96.52385166 25.79832915 -87.60546875 23.27734375 C-86.70251194 23.02230701 -85.79955513 22.76727028 -84.86923599 22.50450516 C-79.25763268 20.91939821 -73.64671212 19.33188738 -68.03601074 17.74359131 C-64.23278797 16.66732898 -60.42916104 15.59249929 -56.62551403 14.51773739 C-51.9936936 13.20892994 -47.36205666 11.89947378 -42.73046875 10.58984375 C-41.46169419 10.23110829 -41.46169419 10.23110829 -40.16728783 9.86512566 C-38.51341867 9.39739338 -36.85961404 8.92943287 -35.20587635 8.461236 C-33.6001731 8.00690801 -31.99422987 7.55342723 -30.38803387 7.10084438 C-25.97455945 5.85460059 -21.57010547 4.58211745 -17.17202759 3.28250122 C-15.72498806 2.85857637 -15.72498806 2.85857637 -14.2487154 2.42608738 C-12.37682054 1.87703917 -10.50660958 1.32220941 -8.63833141 0.76097775 C-7.79916841 0.51590261 -6.9600054 0.27082747 -6.09541321 0.01832581 C-5.35168111 -0.20270026 -4.60794901 -0.42372633 -3.84167957 -0.65145016 C-2 -1 -2 -1 0 0 Z " fill="#FB7478" transform="translate(906,489)"/>
<path d="M0 0 C2.39376415 2.13087086 3.47161654 3.72674033 4.31860352 6.80957031 C4.53214981 7.5675592 4.74569611 8.3255481 4.9657135 9.10650635 C5.18456711 9.9221405 5.40342072 10.73777466 5.62890625 11.578125 C5.86407455 12.42292419 6.09924286 13.26772339 6.34153748 14.13812256 C7.09127661 16.83958162 7.82709336 19.54460807 8.5625 22.25 C9.06092513 24.05624476 9.56026411 25.86223762 10.06054688 27.66796875 C11.18786675 31.7416923 12.30684665 35.81757857 13.41482544 39.89660645 C13.96636606 41.87910376 14.5598785 43.84978654 15.15600586 45.81933594 C16 49 16 49 16 53 C11.67920088 54.29040545 7.35588329 55.57185744 3.0300293 56.84521484 C1.55990834 57.27930759 0.09049511 57.71580487 -1.37817383 58.15478516 C-3.49377244 58.78667069 -5.61179592 59.40976136 -7.73046875 60.03125 C-8.38274948 60.22811401 -9.03503021 60.42497803 -9.70707703 60.62780762 C-13.23212656 61.6518322 -16.32795517 62.22087488 -20 62 C-23.0266164 54.56587347 -24.98559232 46.87839089 -27 39.125 C-27.68515874 36.50198609 -28.37316161 33.87973077 -29.0625 31.2578125 C-29.55169922 29.39431152 -29.55169922 29.39431152 -30.05078125 27.49316406 C-31.09685604 23.6435658 -32.25082883 19.83970523 -33.484375 16.04638672 C-34 14 -34 14 -34 10 C-22.73683605 6.39394615 -11.41151089 3.1038253 0 0 Z " fill="#FB7478" transform="translate(955,474)"/>
<path d="M0 0 C0.66 0.33 1.32 0.66 2 1 C2 4.15081975 1.72101535 5.41847698 0 8 C-2.125 8.75 -2.125 8.75 -4 9 C-3.35455571 5.51460083 -1.89865603 2.97180943 0 0 Z " fill="#F86C6F" transform="translate(816,323)"/>
<path d="M0 0 C0.66 0.33 1.32 0.66 2 1 C2.625 3.0625 2.625 3.0625 3 5 C2.34 5 1.68 5 1 5 C1 4.34 1 3.68 1 3 C0.34 3 -0.32 3 -1 3 C-1.103125 3.639375 -1.20625 4.27875 -1.3125 4.9375 C-1.539375 5.618125 -1.76625 6.29875 -2 7 C-2.99 7.33 -3.98 7.66 -5 8 C-3.62845496 5.04590299 -2.01136276 2.55991624 0 0 Z " fill="#F8686C" transform="translate(847,279)"/>
<path d="M0 0 C0 3.34419152 -0.47519394 4.06840321 -2.375 6.6875 C-2.81585937 7.31011719 -3.25671875 7.93273437 -3.7109375 8.57421875 C-4.13632812 9.04472656 -4.56171875 9.51523438 -5 10 C-5.66 10 -6.32 10 -7 10 C-5.33248852 6.05860922 -2.77289351 3.2107188 0 0 Z " fill="#F66D70" transform="translate(751,226)"/>
<path d="M0 0 C-1.50223584 4.20626034 -4.28550034 5.73900021 -8 8 C-6.48291727 4.46014029 -4.24676932 0 0 0 Z " fill="#F86B70" transform="translate(648,163)"/>
</svg>
