<svg width="125" height="136" viewBox="0 0 125 136" fill="none" class="logo__svg" xmlns="http://www.w3.org/2000/svg">
    <g class="logo__svg_top">
       <path class="logo_first_d" d="M36.62 12.41H12.16V44.92H37.84C41.42 44.92 43.31 42.09 44.16 38.78C45.24 34.58 44.7 23.33 44.36 20.07C43.89 15.57 41.34 13.04 36.63 12.41M4.47998 0.330002H38.1C47.77 0.330002 55.23 6.40001 56.78 13.46C58.1 19.46 59.05 35.37 56.78 46.05C55.76 50.84 49.05 57.37 38.1 57.37H5.92999C4.16999 57.21 2.74999 56.63 1.67999 55.58C0.669993 54.58 0.140015 53.18 0.140015 51.76L0 5.72C0 5.23 0.0500122 4.74 0.200012 4.27C0.820012 2.35 2.61003 1.04 4.47003 0.339996" fill="url(#paint0_linear_584_34)"></path>
       <path class="logo_first_e_1" d="M119.72 12.17H71.45C69.66 12.17 68.2 10.71 68.2 8.92V3.25C68.2 1.46 69.66 0 71.45 0H119.72C121.51 0 122.97 1.46 122.97 3.25V8.92C122.97 10.71 121.51 12.17 119.72 12.17Z" fill="url(#paint1_linear_584_34)"></path>
       <path class="logo_first_e_2" d="M119.72 34.7H71.45C69.66 34.7 68.2 33.24 68.2 31.45V25.78C68.2 23.99 69.66 22.53 71.45 22.53H119.72C121.51 22.53 122.97 23.99 122.97 25.78V31.45C122.97 33.24 121.51 34.7 119.72 34.7Z" fill="url(#paint2_linear_584_34)"></path>
       <path class="logo_first_e_3" d="M119.72 57.24H71.45C69.66 57.24 68.2 55.78 68.2 53.99V48.32C68.2 46.53 69.66 45.07 71.45 45.07H119.72C121.51 45.07 122.97 46.53 122.97 48.32V53.99C122.97 55.78 121.51 57.24 119.72 57.24Z" fill="url(#paint3_linear_584_34)"></path>
    </g>
    <g class="logo__svg_bottom" transform="translate(0, 78)">
       <path class="logo_second_e_1" d="M51.52 12.17H3.25C1.46 12.17 0 10.71 0 8.92V3.25C0 1.46 1.46 0 3.25 0H51.52C53.31 0 54.77 1.46 54.77 3.25V8.92C54.77 10.71 53.31 12.17 51.52 12.17Z" fill="url(#paint0_linear_584_35)"></path>
       <path class="logo_second_e_2" d="M51.52 34.7H3.25C1.46 34.7 0 33.24 0 31.45V25.78C0 23.99 1.46 22.53 3.25 22.53H51.52C53.31 22.53 54.77 23.99 54.77 25.78V31.45C54.77 33.24 53.31 34.7 51.52 34.7Z" fill="url(#paint1_linear_584_35)"></path>
       <path class="logo_second_e_3" d="M51.52 57.24H3.25C1.46 57.24 0 55.78 0 53.99V48.32C0 46.53 1.46 45.07 3.25 45.07H51.52C53.31 45.07 54.77 46.53 54.77 48.32V53.99C54.77 55.78 53.31 57.24 51.52 57.24Z" fill="url(#paint2_linear_584_35)"></path>
       <path class="logo_second_d_1" d="M123.46 11.32C122.44 6.52001 115.73 0 104.77 0H72.6C72.6 0 72.54 0 72.52 0C69.28 0.32 66.82 3.08 66.81 6.34V6.91L66.8 9.14V34.96C66.78 35.11 66.77 35.26 66.77 35.41V53.89C66.77 55.68 68.23 57.14 70.02 57.14H75.69C77.48 57.14 78.94 55.68 78.94 53.89V44.24H104.77C114.44 44.24 121.9 38.17 123.45 31.11C124.77 25.11 125.72 21.98 123.45 11.3L123.46 11.32ZM111.03 24.52C110.45 28.96 108.01 31.54 103.3 32.18H84.91L78.95 32.19V12.42H84.91V12.46H104.52C108.1 12.46 110.31 15.26 111.04 18.6C111.44 20.44 111.23 23.07 111.04 24.53L111.03 24.52Z" fill="url(#paint3_linear_584_35)"></path>
       <path class="logo_second_d_2" d="M66.81 6.92L66.8 9.14999V6.92H66.81Z" fill="url(#paint4_linear_584_35)"></path>
    </g>
    <defs>
        <linearGradient id="paint0_linear_584_34" x1="8.38" y1="-2.07" x2="43.18" y2="58.21" gradientUnits="userSpaceOnUse">
            <stop stop-color="#F2A813"></stop>
            <stop offset="1" stop-color="#CB4F9A"></stop>
        </linearGradient>
        <linearGradient id="paint1_linear_584_34" x1="86.69" y1="-9.31" x2="104.46" y2="21.47" gradientUnits="userSpaceOnUse">
            <stop stop-color="#CB4F9A"></stop>
            <stop offset="1" stop-color="#AE2AE2"></stop>
        </linearGradient>
        <linearGradient id="paint2_linear_584_34" x1="86.69" y1="13.23" x2="104.46" y2="44.01" gradientUnits="userSpaceOnUse">
            <stop stop-color="#CB4F9A"></stop>
            <stop offset="1" stop-color="#AE2AE2"></stop>
        </linearGradient>
        <linearGradient id="paint3_linear_584_34" x1="86.69" y1="35.76" x2="104.46" y2="66.54" gradientUnits="userSpaceOnUse">
            <stop stop-color="#CB4F9A"></stop>
            <stop offset="1" stop-color="#AE2AE2"></stop>
        </linearGradient>
        <linearGradient id="paint0_linear_584_35" x1="18.5" y1="-9.31" x2="36.27" y2="21.47" gradientUnits="userSpaceOnUse">
            <stop stop-color="#AE2AE2"></stop>
            <stop offset="1" stop-color="#6F79F1"></stop>
        </linearGradient>
        <linearGradient id="paint1_linear_584_35" x1="18.5" y1="13.23" x2="36.27" y2="44.01" gradientUnits="userSpaceOnUse">
            <stop stop-color="#AE2AE2"></stop>
            <stop offset="1" stop-color="#6F79F1"></stop>
        </linearGradient>
        <linearGradient id="paint2_linear_584_35" x1="18.5" y1="35.76" x2="36.27" y2="66.54" gradientUnits="userSpaceOnUse">
            <stop stop-color="#AE2AE2"></stop>
            <stop offset="1" stop-color="#6F79F1"></stop>
        </linearGradient>
        <linearGradient id="paint3_linear_584_35" x1="75.06" y1="-2.1" x2="104.02" y2="48.06" gradientUnits="userSpaceOnUse">
            <stop stop-color="#6F79F1"></stop>
            <stop offset="1" stop-color="#37BFFE"></stop>
        </linearGradient>
        <linearGradient id="paint4_linear_584_35" x1="66.3195" y1="7.19" x2="67.289" y2="8.87082" gradientUnits="userSpaceOnUse">
            <stop stop-color="#F2A813"></stop>
            <stop offset="0.29" stop-color="#CB4F9A"></stop>
            <stop offset="0.53" stop-color="#AE2AE2"></stop>
            <stop offset="0.78" stop-color="#6F79F1"></stop>
            <stop offset="1" stop-color="#37BFFE"></stop>
        </linearGradient>
    </defs>
</svg>
