<?xml version="1.0" ?>
<svg xmlns="http://www.w3.org/2000/svg" version="1.1" width="1024" height="1024">
	<g fill="none" stroke-linecap="butt">
		<path stroke="#AEAECD39" d="M 530.00 149.00 L 530.00 149.00 C 530.00 149.00 529.77 149.00 529.50 149.00 C 529.23 149.00 528.77 148.55 528.00 147.00" vector-effect="non-scaling-stroke"/>
		<path stroke="#1A1A2BFE" d="M 343.00 294.00 L 343.00 294.00 C 343.00 294.00 370.23 267.68 403.50 235.50 C 436.77 203.32 467.38 173.85 471.50 170.00 C 475.62 166.15 481.02 161.65 483.50 160.00 C 485.98 158.35 491.38 155.43 495.50 153.50 C 499.62 151.57 505.25 149.55 508.00 149.00 C 510.75 148.45 515.02 148.22 517.50 148.50 C 519.98 148.78 522.90 149.45 526.00 151.00" vector-effect="non-scaling-stroke"/>
		<path stroke="#7D7FB8FC" d="M 530.00 149.00 L 530.00 149.00 C 530.00 149.00 532.92 149.90 536.50 151.00 C 540.08 152.10 545.02 154.35 547.50 156.00 C 549.98 157.65 554.70 160.80 558.00 163.00 C 561.30 165.20 565.80 168.35 572.00 173.00" vector-effect="non-scaling-stroke"/>
		<path stroke="#7D7FB8FC" d="M 643.00 484.00 L 643.00 484.00 C 643.00 484.00 643.23 484.00 643.50 484.00 C 643.77 484.00 644.00 481.07 644.00 471.00" vector-effect="non-scaling-stroke"/>
		<path stroke="#7D7FB8FC" d="M 533.00 156.00 L 533.00 156.00 C 533.00 156.00 532.77 156.00 532.50 156.00 C 532.23 156.00 530.65 154.88 526.00 151.00" vector-effect="non-scaling-stroke"/>
		<path stroke="#7D7FB8FC" d="M 526.00 151.00 L 526.00 151.00 C 526.00 151.00 526.45 151.00 527.00 151.00 C 527.55 151.00 528.45 150.55 530.00 149.00" vector-effect="non-scaling-stroke"/>
		<path stroke="#C7C9E8" d="M 644.00 471.00 L 644.00 471.00 C 644.00 471.00 644.00 464.48 644.00 456.50 C 644.00 448.52 643.33 436.15 642.50 429.00 C 641.67 421.85 640.33 411.73 639.50 406.50 C 638.67 401.27 637.10 392.73 636.00 387.50 C 634.90 382.27 632.88 373.50 631.50 368.00 C 630.12 362.50 626.52 350.12 623.50 340.50 C 620.48 330.88 616.42 318.50 614.50 313.00 C 612.58 307.50 608.98 297.82 606.50 291.50 C 604.02 285.18 599.75 274.60 597.00 268.00 C 594.25 261.40 587.95 247.45 583.00 237.00 C 578.05 226.55 570.85 212.38 567.00 205.50 C 563.15 198.62 557.08 188.50 553.50 183.00 C 549.92 177.50 545.42 170.97 543.50 168.50 C 541.58 166.03 538.42 162.20 533.00 156.00" vector-effect="non-scaling-stroke"/>
		<path stroke="#C7C9E8" d="M 533.00 156.00 L 533.00 156.00 C 533.00 156.00 533.45 155.55 534.00 155.00 C 534.67 154.33 537.50 156.83 542.50 162.50 C 546.62 167.18 553.15 175.50 557.00 181.00 C 560.85 186.50 566.70 195.50 570.00 201.00 C 573.30 206.50 579.15 216.85 583.00 224.00 C 586.85 231.15 592.48 242.40 595.50 249.00 C 598.52 255.60 603.02 265.73 605.50 271.50 C 607.98 277.27 612.25 287.62 615.00 294.50 C 617.75 301.38 622.48 313.98 625.50 322.50 C 628.52 331.02 633.02 344.75 635.50 353.00 C 637.98 361.25 641.12 372.73 642.50 378.50 C 643.88 384.27 645.67 393.95 646.50 400.00 C 647.33 406.05 648.23 418.88 648.50 428.50 C 648.77 438.12 648.55 451.62 648.00 458.50 C 647.45 465.38 646.77 471.23 646.50 471.50 C 646.23 471.77 645.55 471.77 644.00 471.00" vector-effect="non-scaling-stroke"/>
		<path stroke="#BDBEE55C" d="M 629.00 227.00 L 629.00 227.00 C 629.00 227.00 627.65 226.10 626.00 225.00 C 624.35 223.90 621.20 221.88 619.00 220.50 C 616.70 219.06 614.15 216.30 611.00 210.00" vector-effect="non-scaling-stroke"/>
		<path stroke="#CDCEEF56" d="M 659.00 256.00 L 659.00 256.00 C 659.00 256.00 655.85 253.07 652.00 249.50 C 648.15 245.93 643.65 242.32 642.00 241.50 C 640.35 240.68 636.98 237.97 634.50 235.50 C 632.02 233.03 629.77 230.10 629.00 227.00" vector-effect="non-scaling-stroke"/>
		<path stroke="#C6C6CA20" d="M 352.00 284.00 L 352.00 284.00 C 352.00 284.00 350.20 286.02 348.00 288.50 C 345.80 290.98 343.77 293.23 343.00 294.00" vector-effect="non-scaling-stroke"/>
		<path stroke="#C6C6CA20" d="M 343.00 294.00 L 343.00 294.00 C 343.00 294.00 331.30 305.48 317.00 319.50 C 302.70 333.52 287.40 349.50 283.00 355.00 C 278.60 360.50 272.30 369.05 269.00 374.00 C 265.70 378.95 260.52 387.73 257.50 393.50 C 254.47 399.27 249.97 408.95 247.50 415.00 C 245.03 421.05 241.43 431.18 239.50 437.50 C 237.57 443.82 234.88 455.07 233.50 462.50 C 231.50 473.32 230.90 480.37 230.50 498.00 C 230.22 510.10 230.45 524.27 231.00 529.50 C 231.55 534.73 233.12 544.85 234.50 552.00 C 235.88 559.15 237.68 566.35 240.00 571.00" vector-effect="non-scaling-stroke"/>
		<path stroke="#CCCEEC43" d="M 725.00 319.00 L 725.00 319.00 C 725.00 319.00 721.62 315.85 717.50 312.00 C 713.38 308.15 708.65 304.32 707.00 303.50 C 705.35 302.68 703.33 300.65 701.00 296.00" vector-effect="non-scaling-stroke"/>
		<path stroke="#C8C8CC21" d="M 746.00 343.00 L 746.00 343.00 C 746.00 343.00 744.42 341.20 742.50 339.00 C 740.58 336.80 739.45 334.77 741.00 334.00" vector-effect="non-scaling-stroke"/>
		<path stroke="#161725FE" d="M 746.00 343.00 L 746.00 343.00 C 746.00 343.00 746.45 343.00 747.00 343.00 C 747.55 343.00 751.38 347.05 755.50 352.00 C 759.62 356.95 766.38 365.95 770.50 372.00 C 774.62 378.05 781.60 390.20 786.00 399.00 C 790.44 407.89 796.00 421.00 798.50 428.50 C 800.98 435.93 804.12 447.62 805.50 454.50 C 806.88 461.38 808.45 472.18 809.00 478.50 C 809.55 484.82 809.77 497.88 809.50 507.50 C 809.23 517.12 808.33 529.05 807.50 534.00 C 806.67 538.95 804.88 547.73 803.50 553.50 C 802.12 559.27 798.98 569.62 796.50 576.50 C 794.02 583.38 788.85 595.08 785.00 602.50 C 781.15 609.92 775.52 619.83 772.50 624.50 C 769.48 629.17 764.98 635.70 762.50 639.00 C 760.02 642.30 754.40 649.05 750.00 654.00 C 745.60 658.95 727.15 677.40 709.00 695.00 C 690.85 712.60 661.38 740.95 643.50 758.00 C 625.62 775.05 595.92 803.62 577.50 821.50 C 559.08 839.38 539.50 858.05 534.00 863.00 C 528.50 867.95 522.88 872.45 519.00 874.00" vector-effect="non-scaling-stroke"/>
		<path stroke="#161725FE" d="M 772.00 418.00 L 772.00 418.00 C 772.00 418.00 771.55 414.62 771.00 410.50 C 770.45 406.38 768.88 398.73 767.50 393.50 C 766.12 388.27 763.20 379.50 761.00 374.00 C 758.80 368.50 755.20 360.62 753.00 356.50 C 750.80 352.38 748.33 347.65 746.00 343.00" vector-effect="non-scaling-stroke"/>
		<path stroke="#BDBEDF" d="M 257.00 470.00 L 257.00 470.00 C 257.00 470.00 259.70 465.27 263.00 459.50 C 266.30 453.73 271.70 445.62 275.00 441.50 C 278.30 437.38 285.27 429.73 290.50 424.50 C 295.73 419.27 304.27 411.85 309.50 408.00 C 314.73 404.15 322.82 398.52 327.50 395.50 C 332.18 392.48 340.95 387.52 347.00 384.50 C 353.05 381.48 362.50 377.20 368.00 375.00 C 373.50 372.80 382.95 369.43 389.00 367.50 C 395.05 365.57 406.52 362.65 414.50 361.00 C 422.48 359.35 432.82 357.55 437.50 357.00 C 442.18 356.45 458.38 356.00 473.50 356.00 C 493.28 356.00 503.53 356.42 510.00 357.50 C 514.95 358.32 522.15 359.68 533.00 362.00" vector-effect="non-scaling-stroke"/>
		<path stroke="#8689C4FC" d="M 533.00 362.00 L 533.00 362.00 C 533.00 362.00 534.12 362.23 535.50 362.50 C 536.88 362.77 538.00 363.23 538.00 364.00" vector-effect="non-scaling-stroke"/>
		<path stroke="#8689C4FC" d="M 516.00 371.00 L 516.00 371.00 C 516.00 371.00 515.10 371.00 514.00 371.00 C 512.90 371.00 508.40 372.12 496.00 376.00" vector-effect="non-scaling-stroke"/>
		<path stroke="#8689C4FC" d="M 249.00 600.00 L 249.00 600.00 C 249.00 600.00 248.78 598.42 248.50 596.50 C 248.22 594.58 247.55 592.77 247.00 592.50 C 246.45 592.23 246.00 591.33 246.00 590.50 C 246.00 589.67 245.10 586.98 244.00 584.50 C 242.90 582.02 241.55 577.98 240.00 571.00" vector-effect="non-scaling-stroke"/>
		<path stroke="#8689C4FC" d="M 240.00 571.00 L 240.00 571.00 C 240.00 571.00 239.55 567.85 239.00 564.00 C 238.45 560.15 238.22 549.80 238.50 541.00 C 238.86 529.39 239.69 521.71 241.50 513.00 C 242.88 506.40 245.57 496.50 247.50 491.00 C 249.43 485.50 252.35 478.52 257.00 470.00" vector-effect="non-scaling-stroke"/>
		<path stroke="#8689C4FC" d="M 257.00 470.00 L 257.00 470.00 C 257.00 470.00 257.90 470.23 259.00 470.50 C 260.33 470.83 261.33 470.33 262.00 469.00 C 262.55 467.90 266.38 462.27 270.50 456.50 C 274.62 450.73 283.18 440.82 289.50 434.50 C 295.82 428.18 304.82 420.07 309.50 416.50 C 314.18 412.93 322.73 407.07 328.50 403.50 C 334.27 399.93 343.73 394.75 349.50 392.00 C 355.27 389.25 364.50 385.20 370.00 383.00 C 375.50 380.80 385.62 377.20 392.50 375.00 C 399.38 372.80 411.52 369.65 419.50 368.00 C 427.48 366.35 440.07 364.32 447.50 363.50 C 455.75 362.58 470.33 362.00 485.00 362.00 C 498.20 362.00 514.40 362.45 521.00 363.00 C 527.60 363.55 533.23 363.77 533.50 363.50 C 533.77 363.23 533.77 362.77 533.00 362.00" vector-effect="non-scaling-stroke"/>
		<path stroke="#BEBECC39" d="M 538.00 364.00 L 538.00 364.00 C 538.00 364.00 541.83 365.12 546.50 366.50 C 551.17 367.88 555.23 369.23 556.00 370.00" vector-effect="non-scaling-stroke"/>
		<path stroke="#BEBECC39" d="M 582.00 607.00 L 582.00 607.00 C 582.00 607.00 581.10 608.35 580.00 610.00 C 578.90 611.65 575.30 614.58 572.00 616.50 C 568.70 618.42 560.38 622.02 553.50 624.50 C 546.62 626.98 541.00 629.45 541.00 631.00" vector-effect="non-scaling-stroke"/>
		<path stroke="#BEBECC39" d="M 527.00 636.00 L 527.00 636.00 C 527.00 636.00 523.85 636.00 520.00 636.00 C 516.15 636.00 508.50 635.55 503.00 635.00 C 497.50 634.45 489.62 633.10 485.50 632.00 C 481.38 630.90 474.18 628.20 469.50 626.00 C 464.82 623.80 458.52 620.42 455.50 618.50 C 452.48 616.58 446.62 612.08 442.50 608.50 C 438.26 604.82 432.39 598.31 429.00 593.50 C 425.70 588.83 420.75 580.27 418.00 574.50 C 415.25 568.73 411.88 559.73 410.50 554.50 C 409.12 549.27 407.55 540.27 407.00 534.50 C 406.33 527.50 406.33 520.17 407.00 512.50 C 407.60 505.62 409.41 495.57 411.50 487.50 C 413.43 480.07 417.02 469.50 419.50 464.00 C 421.98 458.50 425.80 451.07 428.00 447.50 C 430.20 443.93 434.70 436.95 438.00 432.00 C 441.85 426.22 448.83 418.17 457.50 409.50 C 466.17 400.83 474.22 393.85 480.00 390.00 C 484.95 386.70 495.07 381.07 516.00 371.00" vector-effect="non-scaling-stroke"/>
		<path stroke="#BEBECC39" d="M 516.00 371.00 L 516.00 371.00 C 516.00 371.00 519.60 370.10 524.00 369.00 C 528.40 367.90 532.90 366.32 534.00 365.50 C 535.10 364.68 536.45 364.00 538.00 364.00" vector-effect="non-scaling-stroke"/>
		<path stroke="#D9DADB1F" d="M 554.00 370.00 L 554.00 370.00 C 554.00 370.00 554.23 370.00 554.50 370.00 C 554.77 370.00 555.23 370.00 556.00 370.00" vector-effect="non-scaling-stroke"/>
		<path stroke="#D9DADB1F" d="M 556.00 370.00 L 556.00 370.00 C 556.00 370.00 559.38 371.35 563.50 373.00 C 567.62 374.65 574.15 377.80 578.00 380.00 C 581.85 382.20 588.60 386.48 593.00 389.50 C 597.86 392.84 604.14 398.54 617.00 413.00" vector-effect="non-scaling-stroke"/>
		<path stroke="#D9DADB1F" d="M 620.00 416.00 L 620.00 416.00 C 620.00 416.00 622.25 419.82 625.00 424.50 C 627.75 429.18 630.90 435.02 632.00 437.50 C 633.10 439.98 635.12 445.15 636.50 449.00 C 637.88 452.85 639.67 459.82 640.50 464.50 C 641.33 469.18 642.23 475.48 643.00 484.00" vector-effect="non-scaling-stroke"/>
		<path stroke="#D9DADB1F" d="M 643.00 484.00 L 643.00 484.00 C 643.00 484.00 643.00 484.68 643.00 485.50 C 643.00 486.32 642.77 487.00 642.00 487.00" vector-effect="non-scaling-stroke"/>
		<path stroke="#C3C5E6" d="M 496.00 376.00 L 496.00 376.00 C 496.00 376.00 492.62 377.35 488.50 379.00 C 484.38 380.65 475.38 384.93 468.50 388.50 C 461.62 392.07 451.50 397.93 446.00 401.50 C 440.50 405.07 433.30 410.02 430.00 412.50 C 426.70 414.98 419.95 420.60 415.00 425.00 C 410.05 429.40 401.27 437.95 395.50 444.00 C 389.73 450.05 381.62 459.50 377.50 465.00 C 373.38 470.50 367.07 479.95 363.50 486.00 C 359.93 492.05 355.65 499.70 354.00 503.00 C 352.35 506.30 348.98 513.95 346.50 520.00 C 344.02 526.05 340.43 537.08 338.50 544.50 C 336.57 551.92 334.32 563.62 333.50 570.50 C 332.68 577.38 332.00 586.83 332.00 591.50 C 332.00 596.17 332.45 604.50 333.00 610.00 C 333.55 615.50 334.68 623.38 335.50 627.50 C 336.32 631.62 338.35 639.50 340.00 645.00 C 341.65 650.50 345.25 660.17 348.00 666.50 C 350.75 672.83 355.48 682.50 358.50 688.00 C 361.52 693.50 368.05 704.08 373.00 711.50 C 377.95 718.92 384.93 728.83 388.50 733.50 C 392.07 738.17 398.15 745.83 402.00 750.50 C 405.85 755.17 414.62 765.52 421.50 773.50 C 428.38 781.48 439.62 794.08 446.50 801.50 C 453.38 808.92 465.30 821.52 487.00 844.00" vector-effect="non-scaling-stroke"/>
		<path stroke="#C3C5E6" d="M 472.00 834.00 L 472.00 834.00 C 472.00 834.00 460.30 821.85 446.00 807.00 C 431.70 792.15 415.05 774.60 409.00 768.00 C 402.95 761.40 393.27 750.38 387.50 743.50 C 381.73 736.62 373.85 726.50 370.00 721.00 C 366.15 715.50 359.62 705.83 355.50 699.50 C 351.38 693.17 345.98 683.95 343.50 679.00 C 341.02 674.05 336.98 664.83 334.50 658.50 C 332.02 652.17 329.10 643.40 328.00 639.00 C 326.90 634.60 325.32 627.17 324.50 622.50 C 323.68 617.83 322.77 609.27 322.50 603.50 C 322.23 597.73 322.45 587.15 323.00 580.00 C 323.55 572.85 324.68 563.40 325.50 559.00 C 326.32 554.60 328.35 546.27 330.00 540.50 C 331.65 534.73 334.80 525.50 337.00 520.00 C 339.20 514.50 342.57 506.85 344.50 503.00 C 346.43 499.15 350.70 491.50 354.00 486.00 C 357.30 480.50 363.82 470.82 368.50 464.50 C 373.18 458.18 380.60 448.95 385.00 444.00 C 389.40 439.05 397.73 430.95 403.50 426.00 C 409.27 421.05 418.05 413.85 423.00 410.00 C 427.95 406.15 436.27 400.52 441.50 397.50 C 446.73 394.48 454.60 390.20 459.00 388.00 C 463.40 385.80 472.40 381.98 479.00 379.50 C 486.42 376.72 491.95 375.19 496.00 376.00" vector-effect="non-scaling-stroke"/>
		<path stroke="#67676C5B" d="M 617.00 413.00 L 617.00 413.00 C 617.00 413.00 617.67 413.45 618.50 414.00 C 619.33 414.55 620.00 415.23 620.00 416.00" vector-effect="non-scaling-stroke"/>
		<path stroke="#67676C5B" d="M 620.00 416.00 L 620.00 416.00 C 620.00 416.00 619.33 415.55 618.50 415.00 C 617.67 414.45 617.00 413.77 617.00 413.00" vector-effect="non-scaling-stroke"/>
		<path stroke="#B2B4D8" d="M 772.00 418.00 L 772.00 418.00 C 772.00 418.00 771.77 425.43 771.50 434.50 C 771.15 445.98 770.39 453.59 769.00 459.50 C 767.90 464.18 765.88 471.60 764.50 476.00 C 763.12 480.40 760.20 487.82 758.00 492.50 C 755.80 497.18 751.75 504.82 749.00 509.50 C 746.25 514.17 740.85 522.05 737.00 527.00 C 733.15 531.95 726.62 539.83 722.50 544.50 C 718.38 549.17 710.50 556.83 705.00 561.50 C 699.50 566.17 690.73 573.38 685.50 577.50 C 680.27 581.62 670.60 588.38 664.00 592.50 C 657.40 596.62 645.02 603.60 636.50 608.00 C 627.98 612.40 616.27 617.80 610.50 620.00 C 604.73 622.20 594.83 625.58 588.50 627.50 C 582.17 629.42 572.50 631.90 567.00 633.00 C 561.50 634.10 551.38 635.45 544.50 636.00 C 537.62 636.55 530.88 636.77 527.00 636.00" vector-effect="non-scaling-stroke"/>
		<path stroke="#B2B4D8" d="M 527.00 636.00 L 527.00 636.00 C 527.00 636.00 527.90 635.33 529.00 634.50 C 530.10 633.67 533.25 632.55 541.00 631.00" vector-effect="non-scaling-stroke"/>
		<path stroke="#B2B4D8" d="M 541.00 631.00 L 541.00 631.00 C 541.00 631.00 545.05 630.33 550.00 629.50 C 554.95 628.67 564.85 626.42 572.00 624.50 C 579.15 622.58 589.50 619.42 595.00 617.50 C 600.50 615.58 610.85 611.30 618.00 608.00 C 625.15 604.70 635.50 599.52 641.00 596.50 C 646.50 593.48 655.50 588.08 661.00 584.50 C 666.50 580.92 674.38 575.52 678.50 572.50 C 682.62 569.48 690.73 562.95 696.50 558.00 C 702.27 553.05 710.60 545.17 715.00 540.50 C 719.40 535.83 725.70 528.62 729.00 524.50 C 732.30 520.38 737.48 513.17 740.50 508.50 C 743.52 503.82 748.25 495.50 751.00 490.00 C 753.75 484.50 757.12 476.85 758.50 473.00 C 759.88 469.15 762.35 461.05 764.00 455.00 C 765.65 448.95 767.45 440.18 768.00 435.50 C 768.55 430.82 769.00 424.30 769.00 421.00 C 769.00 417.67 769.44 415.00 770.00 415.00 C 770.55 415.00 771.00 415.68 771.00 416.50 C 771.00 417.32 771.23 418.00 772.00 418.00" vector-effect="non-scaling-stroke"/>
		<path stroke="#C5C5DB47" d="M 642.00 495.00 L 642.00 495.00 C 642.00 495.00 642.00 499.95 642.00 506.00 C 642.00 513.50 641.36 519.70 640.00 525.50 C 638.90 530.17 636.88 536.92 635.50 540.50 C 634.12 544.08 631.65 549.92 630.00 553.50 C 628.35 557.08 626.33 560.90 625.50 562.00 C 624.67 563.10 624.23 563.33 624.50 562.50 C 624.77 561.67 624.77 561.00 624.50 561.00 C 624.23 561.00 623.77 561.23 623.00 562.00" vector-effect="non-scaling-stroke"/>
		<path stroke="#DCD9EC36" d="M 248.00 600.00 L 248.00 600.00 C 248.00 600.00 248.22 600.00 249.00 600.00" vector-effect="non-scaling-stroke"/>
		<path stroke="#DCD9EC36" d="M 249.00 600.00 L 249.00 600.00 C 249.00 600.00 249.45 600.45 250.00 601.00 C 250.55 601.55 251.00 602.90 251.00 606.00" vector-effect="non-scaling-stroke"/>
		<path stroke="#F2F2FF14" d="M 265.00 632.00 L 265.00 632.00 C 265.00 632.00 265.23 632.00 265.50 632.00 C 265.77 632.00 266.45 632.90 268.00 636.00" vector-effect="non-scaling-stroke"/>
		<path stroke="#F1F1FF12" d="M 269.00 638.00 L 269.00 638.00 C 269.00 638.00 269.23 638.00 269.50 638.00 C 269.77 638.00 270.45 638.90 272.00 642.00" vector-effect="non-scaling-stroke"/>
		<path stroke="#51538CFE" d="M 472.00 834.00 L 472.00 834.00 C 472.00 834.00 475.15 836.92 479.00 840.50 C 484.09 845.23 486.14 846.59 487.00 844.00" vector-effect="non-scaling-stroke"/>
		<path stroke="#51538CFE" d="M 487.00 844.00 L 487.00 844.00 C 487.00 844.00 493.52 850.75 501.50 859.00 C 509.48 867.25 516.67 874.00 519.00 874.00" vector-effect="non-scaling-stroke"/>
		<path stroke="#51538CFE" d="M 519.00 874.00 L 519.00 874.00 C 519.00 874.00 518.10 874.23 517.00 874.50 C 515.90 874.77 512.98 874.55 506.00 873.00" vector-effect="non-scaling-stroke"/>
		<path stroke="#51538CFE" d="M 464.00 832.00 L 464.00 832.00 C 464.00 832.00 464.45 831.10 465.00 830.00 C 465.96 828.07 466.11 828.11 472.00 834.00" vector-effect="non-scaling-stroke"/>
		<path stroke="#8485AB81" d="M 461.00 832.00 L 461.00 832.00 C 461.00 832.00 461.23 832.00 461.50 832.00 C 461.77 832.00 462.45 832.00 464.00 832.00" vector-effect="non-scaling-stroke"/>
		<path stroke="#8485AB81" d="M 464.00 832.00 L 464.00 832.00 C 464.00 832.00 467.82 835.83 472.50 840.50 C 477.18 845.17 486.62 854.40 506.00 873.00" vector-effect="non-scaling-stroke"/>
		<path stroke="#8485AB81" d="M 506.00 873.00 L 506.00 873.00 C 506.00 873.00 505.55 872.55 505.00 872.00 C 504.45 871.45 503.55 871.00 502.00 871.00" vector-effect="non-scaling-stroke"/>
	</g>
	<path fill="#A4A4AB25" d="M 528.00 147.00 C 528.77 148.55 529.23 149.00 529.50 149.00 C 529.77 149.00 530.00 149.00 530.00 149.00 L 530.00 149.00 C 528.45 150.55 527.55 151.00 527.00 151.00 C 526.45 151.00 526.00 151.00 526.00 151.00 L 526.00 151.00 C 522.90 149.45 519.98 148.78 517.50 148.50 C 515.02 148.22 510.75 148.45 508.00 149.00 C 505.25 149.55 499.62 151.57 495.50 153.50 C 491.38 155.43 485.98 158.35 483.50 160.00 C 481.02 161.65 475.62 166.15 471.50 170.00 C 467.38 173.85 436.77 203.32 403.50 235.50 C 370.23 267.68 343.00 294.00 343.00 294.00 L 343.00 294.00 C 343.77 293.23 345.80 290.98 348.00 288.50 C 350.20 286.02 352.00 284.00 352.00 284.00 L 352.00 284.00 C 376.02 259.98 402.80 233.88 427.00 210.50 C 451.20 187.12 473.93 165.53 477.50 162.50 C 481.27 159.31 487.99 155.11 493.50 152.50 C 502.85 148.07 503.20 147.99 515.50 147.50 C 522.38 147.22 528.00 147.00 528.00 147.00 L 528.00 147.00 Z" fill-rule="evenodd"/>
	<path fill="#AEAECD39" d="M 528.00 147.00 C 531.10 147.00 534.48 147.90 537.50 149.00 C 540.52 150.10 544.80 151.90 547.00 153.00 C 549.20 154.10 553.92 157.03 557.50 159.50 C 561.08 161.97 565.80 166.03 568.00 168.50 C 570.20 170.97 572.00 173.00 572.00 173.00 L 572.00 173.00 C 565.80 168.35 561.30 165.20 558.00 163.00 C 554.70 160.80 549.98 157.65 547.50 156.00 C 545.02 154.35 540.08 152.10 536.50 151.00 C 532.92 149.90 530.00 149.00 530.00 149.00 L 530.00 149.00 L 530.00 149.00 C 530.00 149.00 529.77 149.00 529.50 149.00 C 529.23 149.00 528.77 148.55 528.00 147.00 Z" fill-rule="evenodd"/>
	<path fill="#1A1A2BFE" d="M 526.00 151.00 C 530.65 154.88 532.23 156.00 532.50 156.00 C 532.77 156.00 533.00 156.00 533.00 156.00 L 533.00 156.00 C 538.42 162.20 541.58 166.03 543.50 168.50 C 545.42 170.97 549.92 177.50 553.50 183.00 C 557.08 188.50 563.15 198.62 567.00 205.50 C 570.85 212.38 578.05 226.55 583.00 237.00 C 587.95 247.45 594.25 261.40 597.00 268.00 C 599.75 274.60 604.02 285.18 606.50 291.50 C 608.98 297.82 612.58 307.50 614.50 313.00 C 616.42 318.50 620.48 330.88 623.50 340.50 C 626.52 350.12 630.12 362.50 631.50 368.00 C 632.88 373.50 634.90 382.27 636.00 387.50 C 637.10 392.73 638.67 401.27 639.50 406.50 C 640.33 411.73 641.67 421.85 642.50 429.00 C 643.33 436.15 644.00 448.52 644.00 456.50 C 644.00 464.48 644.00 471.00 644.00 471.00 L 644.00 471.00 C 644.00 481.07 643.77 484.00 643.50 484.00 C 643.23 484.00 643.00 484.00 643.00 484.00 L 643.00 484.00 C 642.23 475.48 641.33 469.18 640.50 464.50 C 639.67 459.82 637.88 452.85 636.50 449.00 C 635.12 445.15 633.10 439.98 632.00 437.50 C 630.90 435.02 627.75 429.18 625.00 424.50 C 622.25 419.82 620.00 416.00 620.00 416.00 L 620.00 416.00 C 620.00 415.23 619.33 414.55 618.50 414.00 C 617.67 413.45 617.00 413.00 617.00 413.00 L 617.00 413.00 C 604.14 398.54 597.86 392.84 593.00 389.50 C 588.60 386.48 581.85 382.20 578.00 380.00 C 574.15 377.80 567.62 374.65 563.50 373.00 C 559.38 371.35 556.00 370.00 556.00 370.00 L 556.00 370.00 C 555.23 369.23 551.17 367.88 546.50 366.50 C 541.83 365.12 538.00 364.00 538.00 364.00 L 538.00 364.00 C 538.00 363.23 536.88 362.77 535.50 362.50 C 534.12 362.23 533.00 362.00 533.00 362.00 L 533.00 362.00 C 522.15 359.68 514.95 358.32 510.00 357.50 C 503.53 356.42 493.28 356.00 473.50 356.00 C 458.38 356.00 442.18 356.45 437.50 357.00 C 432.82 357.55 422.48 359.35 414.50 361.00 C 406.52 362.65 395.05 365.57 389.00 367.50 C 382.95 369.43 373.50 372.80 368.00 375.00 C 362.50 377.20 353.05 381.48 347.00 384.50 C 340.95 387.52 332.18 392.48 327.50 395.50 C 322.82 398.52 314.73 404.15 309.50 408.00 C 304.27 411.85 295.73 419.27 290.50 424.50 C 285.27 429.73 278.30 437.38 275.00 441.50 C 271.70 445.62 266.30 453.73 263.00 459.50 C 259.70 465.27 257.00 470.00 257.00 470.00 L 257.00 470.00 C 252.35 478.52 249.43 485.50 247.50 491.00 C 245.57 496.50 242.88 506.40 241.50 513.00 C 239.69 521.71 238.86 529.39 238.50 541.00 C 238.22 549.80 238.45 560.15 239.00 564.00 C 239.55 567.85 240.00 571.00 240.00 571.00 L 240.00 571.00 C 237.68 566.35 235.88 559.15 234.50 552.00 C 233.12 544.85 231.55 534.73 231.00 529.50 C 230.45 524.27 230.22 510.10 230.50 498.00 C 230.90 480.37 231.50 473.32 233.50 462.50 C 234.88 455.07 237.57 443.82 239.50 437.50 C 241.43 431.18 245.03 421.05 247.50 415.00 C 249.97 408.95 254.47 399.27 257.50 393.50 C 260.52 387.73 265.70 378.95 269.00 374.00 C 272.30 369.05 278.60 360.50 283.00 355.00 C 287.40 349.50 302.70 333.52 317.00 319.50 C 331.30 305.48 343.00 294.00 343.00 294.00 L 343.00 294.00 L 343.00 294.00 C 343.00 294.00 370.23 267.68 403.50 235.50 C 436.77 203.32 467.38 173.85 471.50 170.00 C 475.62 166.15 481.02 161.65 483.50 160.00 C 485.98 158.35 491.38 155.43 495.50 153.50 C 499.62 151.57 505.25 149.55 508.00 149.00 C 510.75 148.45 515.02 148.22 517.50 148.50 C 519.98 148.78 522.90 149.45 526.00 151.00 Z" fill-rule="evenodd"/>
	<path fill="#7D7FB8FC" d="M 530.00 149.00 L 530.00 149.00 C 530.00 149.00 532.92 149.90 536.50 151.00 C 540.08 152.10 545.02 154.35 547.50 156.00 C 549.98 157.65 554.70 160.80 558.00 163.00 C 561.30 165.20 565.80 168.35 572.00 173.00 C 573.55 173.00 582.33 181.32 592.50 191.50 C 602.67 201.68 611.00 210.00 611.00 210.00 L 611.00 210.00 C 614.15 216.30 616.70 219.06 619.00 220.50 C 621.20 221.88 624.35 223.90 626.00 225.00 C 627.65 226.10 629.00 227.00 629.00 227.00 L 629.00 227.00 C 629.77 230.10 632.02 233.03 634.50 235.50 C 636.98 237.97 640.35 240.68 642.00 241.50 C 643.65 242.32 648.15 245.93 652.00 249.50 C 655.85 253.07 659.00 256.00 659.00 256.00 L 659.00 256.00 C 659.77 256.00 669.23 265.00 680.50 276.00 C 691.77 287.00 701.00 296.00 701.00 296.00 L 701.00 296.00 C 703.33 300.65 705.35 302.68 707.00 303.50 C 708.65 304.32 713.38 308.15 717.50 312.00 C 721.62 315.85 725.00 319.00 725.00 319.00 L 725.00 319.00 C 726.55 319.00 730.15 322.38 734.00 326.50 C 737.85 330.62 741.00 334.00 741.00 334.00 L 741.00 334.00 C 739.45 334.77 740.58 336.80 742.50 339.00 C 744.42 341.20 746.00 343.00 746.00 343.00 L 746.00 343.00 C 748.33 347.65 750.80 352.38 753.00 356.50 C 755.20 360.62 758.80 368.50 761.00 374.00 C 763.20 379.50 766.12 388.27 767.50 393.50 C 768.88 398.73 770.45 406.38 771.00 410.50 C 771.55 414.62 772.00 418.00 772.00 418.00 L 772.00 418.00 C 771.23 418.00 771.00 417.32 771.00 416.50 C 771.00 415.68 770.55 415.00 770.00 415.00 C 769.44 415.00 769.00 417.67 769.00 421.00 C 769.00 424.30 768.55 430.82 768.00 435.50 C 767.45 440.18 765.65 448.95 764.00 455.00 C 762.35 461.05 759.88 469.15 758.50 473.00 C 757.12 476.85 753.75 484.50 751.00 490.00 C 748.25 495.50 743.52 503.82 740.50 508.50 C 737.48 513.17 732.30 520.38 729.00 524.50 C 725.70 528.62 719.40 535.83 715.00 540.50 C 710.60 545.17 702.27 553.05 696.50 558.00 C 690.73 562.95 682.62 569.48 678.50 572.50 C 674.38 575.52 666.50 580.92 661.00 584.50 C 655.50 588.08 646.50 593.48 641.00 596.50 C 635.50 599.52 625.15 604.70 618.00 608.00 C 610.85 611.30 600.50 615.58 595.00 617.50 C 589.50 619.42 579.15 622.58 572.00 624.50 C 564.85 626.42 554.95 628.67 550.00 629.50 C 545.05 630.33 541.00 631.00 541.00 631.00 L 541.00 631.00 C 541.00 629.45 546.62 626.98 553.50 624.50 C 560.38 622.02 568.70 618.42 572.00 616.50 C 575.30 614.58 578.90 611.65 580.00 610.00 C 581.10 608.35 582.00 607.00 582.00 607.00 L 582.00 607.00 C 591.30 599.25 595.80 595.42 598.00 593.50 C 600.20 591.58 605.38 585.95 609.50 581.00 C 613.62 576.05 618.35 569.75 620.00 567.00 C 621.65 564.25 623.00 562.00 623.00 562.00 L 623.00 562.00 C 623.77 561.23 624.23 561.00 624.50 561.00 C 624.77 561.00 624.77 561.67 624.50 562.50 C 624.23 563.33 624.67 563.10 625.50 562.00 C 626.33 560.90 628.35 557.08 630.00 553.50 C 631.65 549.92 634.12 544.08 635.50 540.50 C 636.88 536.92 638.90 530.17 640.00 525.50 C 641.36 519.70 642.00 513.50 642.00 506.00 C 642.00 499.95 642.00 495.00 642.00 495.00 L 642.00 495.00 C 642.00 489.57 642.00 487.77 642.00 487.50 C 642.00 487.23 642.00 487.00 642.00 487.00 L 642.00 487.00 C 642.77 487.00 643.00 486.32 643.00 485.50 C 643.00 484.68 643.00 484.00 643.00 484.00 L 643.00 484.00 L 643.00 484.00 C 643.00 484.00 643.23 484.00 643.50 484.00 C 643.77 484.00 644.00 481.07 644.00 471.00 C 645.55 471.77 646.23 471.77 646.50 471.50 C 646.77 471.23 647.45 465.38 648.00 458.50 C 648.55 451.62 648.77 438.12 648.50 428.50 C 648.23 418.88 647.33 406.05 646.50 400.00 C 645.67 393.95 643.88 384.27 642.50 378.50 C 641.12 372.73 637.98 361.25 635.50 353.00 C 633.02 344.75 628.52 331.02 625.50 322.50 C 622.48 313.98 617.75 301.38 615.00 294.50 C 612.25 287.62 607.98 277.27 605.50 271.50 C 603.02 265.73 598.52 255.60 595.50 249.00 C 592.48 242.40 586.85 231.15 583.00 224.00 C 579.15 216.85 573.30 206.50 570.00 201.00 C 566.70 195.50 560.85 186.50 557.00 181.00 C 553.15 175.50 546.62 167.18 542.50 162.50 C 537.50 156.83 534.67 154.33 534.00 155.00 C 533.45 155.55 533.00 156.00 533.00 156.00 L 533.00 156.00 L 533.00 156.00 C 533.00 156.00 532.77 156.00 532.50 156.00 C 532.23 156.00 530.65 154.88 526.00 151.00 L 526.00 151.00 C 526.00 151.00 526.45 151.00 527.00 151.00 C 527.55 151.00 528.45 150.55 530.00 149.00 Z" fill-rule="evenodd"/>
	<path fill="#C7C9E8" d="M 644.00 471.00 L 644.00 471.00 C 644.00 471.00 644.00 464.48 644.00 456.50 C 644.00 448.52 643.33 436.15 642.50 429.00 C 641.67 421.85 640.33 411.73 639.50 406.50 C 638.67 401.27 637.10 392.73 636.00 387.50 C 634.90 382.27 632.88 373.50 631.50 368.00 C 630.12 362.50 626.52 350.12 623.50 340.50 C 620.48 330.88 616.42 318.50 614.50 313.00 C 612.58 307.50 608.98 297.82 606.50 291.50 C 604.02 285.18 599.75 274.60 597.00 268.00 C 594.25 261.40 587.95 247.45 583.00 237.00 C 578.05 226.55 570.85 212.38 567.00 205.50 C 563.15 198.62 557.08 188.50 553.50 183.00 C 549.92 177.50 545.42 170.97 543.50 168.50 C 541.58 166.03 538.42 162.20 533.00 156.00 L 533.00 156.00 C 533.00 156.00 533.45 155.55 534.00 155.00 C 534.67 154.33 537.50 156.83 542.50 162.50 C 546.62 167.18 553.15 175.50 557.00 181.00 C 560.85 186.50 566.70 195.50 570.00 201.00 C 573.30 206.50 579.15 216.85 583.00 224.00 C 586.85 231.15 592.48 242.40 595.50 249.00 C 598.52 255.60 603.02 265.73 605.50 271.50 C 607.98 277.27 612.25 287.62 615.00 294.50 C 617.75 301.38 622.48 313.98 625.50 322.50 C 628.52 331.02 633.02 344.75 635.50 353.00 C 637.98 361.25 641.12 372.73 642.50 378.50 C 643.88 384.27 645.67 393.95 646.50 400.00 C 647.33 406.05 648.23 418.88 648.50 428.50 C 648.77 438.12 648.55 451.62 648.00 458.50 C 647.45 465.38 646.77 471.23 646.50 471.50 C 646.23 471.77 645.55 471.77 644.00 471.00 Z" fill-rule="evenodd"/>
	<path fill="#BDBEE55C" d="M 611.00 210.00 C 617.20 214.65 621.25 218.47 624.00 221.50 C 626.75 224.53 629.00 227.00 629.00 227.00 L 629.00 227.00 L 629.00 227.00 C 629.00 227.00 627.65 226.10 626.00 225.00 C 624.35 223.90 621.20 221.88 619.00 220.50 C 616.70 219.06 614.15 216.30 611.00 210.00 Z" fill-rule="evenodd"/>
	<path fill="#CDCEEF56" d="M 629.00 227.00 C 633.65 230.10 640.40 236.62 647.00 243.50 C 653.60 250.38 659.00 256.00 659.00 256.00 L 659.00 256.00 L 659.00 256.00 C 659.00 256.00 655.85 253.07 652.00 249.50 C 648.15 245.93 643.65 242.32 642.00 241.50 C 640.35 240.68 636.98 237.97 634.50 235.50 C 632.02 233.03 629.77 230.10 629.00 227.00 Z" fill-rule="evenodd"/>
	<path fill="#C6C6CA20" d="M 352.00 284.00 L 352.00 284.00 C 352.00 284.00 350.20 286.02 348.00 288.50 C 345.80 290.98 343.77 293.23 343.00 294.00 L 343.00 294.00 C 343.00 294.00 331.30 305.48 317.00 319.50 C 302.70 333.52 287.40 349.50 283.00 355.00 C 278.60 360.50 272.30 369.05 269.00 374.00 C 265.70 378.95 260.52 387.73 257.50 393.50 C 254.47 399.27 249.97 408.95 247.50 415.00 C 245.03 421.05 241.43 431.18 239.50 437.50 C 237.57 443.82 234.88 455.07 233.50 462.50 C 231.50 473.32 230.90 480.37 230.50 498.00 C 230.22 510.10 230.45 524.27 231.00 529.50 C 231.55 534.73 233.12 544.85 234.50 552.00 C 235.88 559.15 237.68 566.35 240.00 571.00 C 241.55 577.98 242.90 582.02 244.00 584.50 C 245.10 586.98 246.00 589.67 246.00 590.50 C 246.00 591.33 246.45 592.23 247.00 592.50 C 247.55 592.77 248.22 594.58 248.50 596.50 C 248.78 598.42 249.00 600.00 249.00 600.00 L 249.00 600.00 C 248.22 600.00 248.00 600.00 248.00 600.00 L 248.00 600.00 C 241.80 584.50 238.88 575.95 237.50 571.00 C 236.12 566.05 233.88 556.38 232.50 549.50 C 231.12 542.62 229.55 531.60 229.00 525.00 C 228.45 518.40 228.22 505.80 228.50 497.00 C 228.78 488.20 229.68 476.50 230.50 471.00 C 231.32 465.50 232.45 458.98 233.00 456.50 C 233.55 454.02 235.57 446.38 237.50 439.50 C 239.43 432.62 243.03 422.05 245.50 416.00 C 247.97 409.95 252.47 400.27 255.50 394.50 C 258.52 388.73 263.93 379.50 267.50 374.00 C 271.07 368.50 277.60 359.50 282.00 354.00 C 286.40 348.50 303.50 330.73 320.00 314.50 C 336.50 298.27 350.45 284.77 351.00 284.50 C 351.55 284.23 352.00 284.00 352.00 284.00 L 352.00 284.00 Z" fill-rule="evenodd"/>
	<path fill="#CCCEEC43" d="M 701.00 296.00 C 705.65 299.10 711.05 304.27 716.00 309.50 C 720.95 314.73 725.00 319.00 725.00 319.00 L 725.00 319.00 L 725.00 319.00 C 725.00 319.00 721.62 315.85 717.50 312.00 C 713.38 308.15 708.65 304.32 707.00 303.50 C 705.35 302.68 703.33 300.65 701.00 296.00 Z" fill-rule="evenodd"/>
	<path fill="#C8C8CC21" d="M 741.00 334.00 C 754.95 348.73 762.15 357.27 766.00 362.50 C 769.85 367.73 775.02 375.15 777.50 379.00 C 779.98 382.85 785.15 392.52 789.00 400.50 C 792.85 408.48 798.02 420.85 800.50 428.00 C 802.99 435.19 806.34 447.93 808.00 456.50 C 810.87 471.32 811.00 473.17 811.00 498.50 C 811.00 517.17 810.56 527.81 809.50 534.50 C 808.67 539.73 806.88 548.50 805.50 554.00 C 804.12 559.50 801.42 568.50 799.50 574.00 C 797.58 579.50 792.62 590.98 788.50 599.50 C 784.29 608.20 777.27 620.48 772.50 627.50 C 767.83 634.38 759.73 645.17 754.50 651.50 C 749.27 657.83 736.23 671.33 725.50 681.50 C 714.77 691.67 693.40 712.15 678.00 727.00 C 662.60 741.85 644.83 758.95 638.50 765.00 C 632.17 771.05 614.85 787.70 600.00 802.00 C 585.15 816.30 564.00 836.55 553.00 847.00 C 542.00 857.45 530.75 868.02 528.00 870.50 C 524.61 873.55 521.55 875.32 518.50 876.00 C 515.50 876.67 512.67 876.67 510.00 876.00 C 507.80 875.45 505.10 874.10 504.00 873.00 C 502.90 871.90 502.00 871.00 502.00 871.00 L 502.00 871.00 C 503.55 871.00 504.45 871.45 505.00 872.00 C 505.55 872.55 506.00 873.00 506.00 873.00 L 506.00 873.00 C 512.98 874.55 515.90 874.77 517.00 874.50 C 518.10 874.23 519.00 874.00 519.00 874.00 L 519.00 874.00 C 522.88 872.45 528.50 867.95 534.00 863.00 C 539.50 858.05 559.08 839.38 577.50 821.50 C 595.92 803.62 625.62 775.05 643.50 758.00 C 661.38 740.95 690.85 712.60 709.00 695.00 C 727.15 677.40 745.60 658.95 750.00 654.00 C 754.40 649.05 760.02 642.30 762.50 639.00 C 764.98 635.70 769.48 629.17 772.50 624.50 C 775.52 619.83 781.15 609.92 785.00 602.50 C 788.85 595.08 794.02 583.38 796.50 576.50 C 798.98 569.62 802.12 559.27 803.50 553.50 C 804.88 547.73 806.67 538.95 807.50 534.00 C 808.33 529.05 809.23 517.12 809.50 507.50 C 809.77 497.88 809.55 484.82 809.00 478.50 C 808.45 472.18 806.88 461.38 805.50 454.50 C 804.12 447.62 800.98 435.93 798.50 428.50 C 796.00 421.00 790.44 407.89 786.00 399.00 C 781.60 390.20 774.62 378.05 770.50 372.00 C 766.38 365.95 759.62 356.95 755.50 352.00 C 751.38 347.05 747.55 343.00 747.00 343.00 C 746.45 343.00 746.00 343.00 746.00 343.00 L 746.00 343.00 L 746.00 343.00 C 746.00 343.00 744.42 341.20 742.50 339.00 C 740.58 336.80 739.45 334.77 741.00 334.00 Z" fill-rule="evenodd"/>
	<path fill="#161725FE" d="M 746.00 343.00 L 746.00 343.00 C 746.00 343.00 746.45 343.00 747.00 343.00 C 747.55 343.00 751.38 347.05 755.50 352.00 C 759.62 356.95 766.38 365.95 770.50 372.00 C 774.62 378.05 781.60 390.20 786.00 399.00 C 790.44 407.89 796.00 421.00 798.50 428.50 C 800.98 435.93 804.12 447.62 805.50 454.50 C 806.88 461.38 808.45 472.18 809.00 478.50 C 809.55 484.82 809.77 497.88 809.50 507.50 C 809.23 517.12 808.33 529.05 807.50 534.00 C 806.67 538.95 804.88 547.73 803.50 553.50 C 802.12 559.27 798.98 569.62 796.50 576.50 C 794.02 583.38 788.85 595.08 785.00 602.50 C 781.15 609.92 775.52 619.83 772.50 624.50 C 769.48 629.17 764.98 635.70 762.50 639.00 C 760.02 642.30 754.40 649.05 750.00 654.00 C 745.60 658.95 727.15 677.40 709.00 695.00 C 690.85 712.60 661.38 740.95 643.50 758.00 C 625.62 775.05 595.92 803.62 577.50 821.50 C 559.08 839.38 539.50 858.05 534.00 863.00 C 528.50 867.95 522.88 872.45 519.00 874.00 C 516.67 874.00 509.48 867.25 501.50 859.00 C 493.52 850.75 487.00 844.00 487.00 844.00 L 487.00 844.00 C 465.30 821.52 453.38 808.92 446.50 801.50 C 439.62 794.08 428.38 781.48 421.50 773.50 C 414.62 765.52 405.85 755.17 402.00 750.50 C 398.15 745.83 392.07 738.17 388.50 733.50 C 384.93 728.83 377.95 718.92 373.00 711.50 C 368.05 704.08 361.52 693.50 358.50 688.00 C 355.48 682.50 350.75 672.83 348.00 666.50 C 345.25 660.17 341.65 650.50 340.00 645.00 C 338.35 639.50 336.32 631.62 335.50 627.50 C 334.68 623.38 333.55 615.50 333.00 610.00 C 332.45 604.50 332.00 596.17 332.00 591.50 C 332.00 586.83 332.68 577.38 333.50 570.50 C 334.32 563.62 336.57 551.92 338.50 544.50 C 340.43 537.08 344.02 526.05 346.50 520.00 C 348.98 513.95 352.35 506.30 354.00 503.00 C 355.65 499.70 359.93 492.05 363.50 486.00 C 367.07 479.95 373.38 470.50 377.50 465.00 C 381.62 459.50 389.73 450.05 395.50 444.00 C 401.27 437.95 410.05 429.40 415.00 425.00 C 419.95 420.60 426.70 414.98 430.00 412.50 C 433.30 410.02 440.50 405.07 446.00 401.50 C 451.50 397.93 461.62 392.07 468.50 388.50 C 475.38 384.93 484.38 380.65 488.50 379.00 C 492.62 377.35 496.00 376.00 496.00 376.00 L 496.00 376.00 C 508.40 372.12 512.90 371.00 514.00 371.00 C 515.10 371.00 516.00 371.00 516.00 371.00 L 516.00 371.00 C 495.07 381.07 484.95 386.70 480.00 390.00 C 474.22 393.85 466.17 400.83 457.50 409.50 C 448.83 418.17 441.85 426.22 438.00 432.00 C 434.70 436.95 430.20 443.93 428.00 447.50 C 425.80 451.07 421.98 458.50 419.50 464.00 C 417.02 469.50 413.43 480.07 411.50 487.50 C 409.41 495.57 407.60 505.62 407.00 512.50 C 406.33 520.17 406.33 527.50 407.00 534.50 C 407.55 540.27 409.12 549.27 410.50 554.50 C 411.88 559.73 415.25 568.73 418.00 574.50 C 420.75 580.27 425.70 588.83 429.00 593.50 C 432.39 598.31 438.26 604.82 442.50 608.50 C 446.62 612.08 452.48 616.58 455.50 618.50 C 458.52 620.42 464.82 623.80 469.50 626.00 C 474.18 628.20 481.38 630.90 485.50 632.00 C 489.62 633.10 497.50 634.45 503.00 635.00 C 508.50 635.55 516.15 636.00 520.00 636.00 C 523.85 636.00 527.00 636.00 527.00 636.00 L 527.00 636.00 C 530.88 636.77 537.62 636.55 544.50 636.00 C 551.38 635.45 561.50 634.10 567.00 633.00 C 572.50 631.90 582.17 629.42 588.50 627.50 C 594.83 625.58 604.73 622.20 610.50 620.00 C 616.27 617.80 627.98 612.40 636.50 608.00 C 645.02 603.60 657.40 596.62 664.00 592.50 C 670.60 588.38 680.27 581.62 685.50 577.50 C 690.73 573.38 699.50 566.17 705.00 561.50 C 710.50 556.83 718.38 549.17 722.50 544.50 C 726.62 539.83 733.15 531.95 737.00 527.00 C 740.85 522.05 746.25 514.17 749.00 509.50 C 751.75 504.82 755.80 497.18 758.00 492.50 C 760.20 487.82 763.12 480.40 764.50 476.00 C 765.88 471.60 767.90 464.18 769.00 459.50 C 770.39 453.59 771.15 445.98 771.50 434.50 C 771.77 425.43 772.00 418.00 772.00 418.00 L 772.00 418.00 L 772.00 418.00 C 772.00 418.00 771.55 414.62 771.00 410.50 C 770.45 406.38 768.88 398.73 767.50 393.50 C 766.12 388.27 763.20 379.50 761.00 374.00 C 758.80 368.50 755.20 360.62 753.00 356.50 C 750.80 352.38 748.33 347.65 746.00 343.00 Z" fill-rule="evenodd"/>
	<path fill="#BDBEDF" d="M 533.00 362.00 C 533.77 362.77 533.77 363.23 533.50 363.50 C 533.23 363.77 527.60 363.55 521.00 363.00 C 514.40 362.45 498.20 362.00 485.00 362.00 C 470.33 362.00 455.75 362.58 447.50 363.50 C 440.07 364.32 427.48 366.35 419.50 368.00 C 411.52 369.65 399.38 372.80 392.50 375.00 C 385.62 377.20 375.50 380.80 370.00 383.00 C 364.50 385.20 355.27 389.25 349.50 392.00 C 343.73 394.75 334.27 399.93 328.50 403.50 C 322.73 407.07 314.18 412.93 309.50 416.50 C 304.82 420.07 295.82 428.18 289.50 434.50 C 283.18 440.82 274.62 450.73 270.50 456.50 C 266.38 462.27 262.55 467.90 262.00 469.00 C 261.33 470.33 260.33 470.83 259.00 470.50 C 257.90 470.23 257.00 470.00 257.00 470.00 L 257.00 470.00 L 257.00 470.00 C 257.00 470.00 259.70 465.27 263.00 459.50 C 266.30 453.73 271.70 445.62 275.00 441.50 C 278.30 437.38 285.27 429.73 290.50 424.50 C 295.73 419.27 304.27 411.85 309.50 408.00 C 314.73 404.15 322.82 398.52 327.50 395.50 C 332.18 392.48 340.95 387.52 347.00 384.50 C 353.05 381.48 362.50 377.20 368.00 375.00 C 373.50 372.80 382.95 369.43 389.00 367.50 C 395.05 365.57 406.52 362.65 414.50 361.00 C 422.48 359.35 432.82 357.55 437.50 357.00 C 442.18 356.45 458.38 356.00 473.50 356.00 C 493.28 356.00 503.53 356.42 510.00 357.50 C 514.95 358.32 522.15 359.68 533.00 362.00 Z" fill-rule="evenodd"/>
	<path fill="#8689C4FC" d="M 533.00 362.00 L 533.00 362.00 C 533.00 362.00 534.12 362.23 535.50 362.50 C 536.88 362.77 538.00 363.23 538.00 364.00 C 536.45 364.00 535.10 364.68 534.00 365.50 C 532.90 366.32 528.40 367.90 524.00 369.00 C 519.60 370.10 516.00 371.00 516.00 371.00 L 516.00 371.00 L 516.00 371.00 C 516.00 371.00 515.10 371.00 514.00 371.00 C 512.90 371.00 508.40 372.12 496.00 376.00 C 491.95 375.19 486.42 376.72 479.00 379.50 C 472.40 381.98 463.40 385.80 459.00 388.00 C 454.60 390.20 446.73 394.48 441.50 397.50 C 436.27 400.52 427.95 406.15 423.00 410.00 C 418.05 413.85 409.27 421.05 403.50 426.00 C 397.73 430.95 389.40 439.05 385.00 444.00 C 380.60 448.95 373.18 458.18 368.50 464.50 C 363.82 470.82 357.30 480.50 354.00 486.00 C 350.70 491.50 346.43 499.15 344.50 503.00 C 342.57 506.85 339.20 514.50 337.00 520.00 C 334.80 525.50 331.65 534.73 330.00 540.50 C 328.35 546.27 326.32 554.60 325.50 559.00 C 324.68 563.40 323.55 572.85 323.00 580.00 C 322.45 587.15 322.23 597.73 322.50 603.50 C 322.77 609.27 323.68 617.83 324.50 622.50 C 325.32 627.17 326.90 634.60 328.00 639.00 C 329.10 643.40 332.02 652.17 334.50 658.50 C 336.98 664.83 341.02 674.05 343.50 679.00 C 345.98 683.95 351.38 693.17 355.50 699.50 C 359.62 705.83 366.15 715.50 370.00 721.00 C 373.85 726.50 381.73 736.62 387.50 743.50 C 393.27 750.38 402.95 761.40 409.00 768.00 C 415.05 774.60 431.70 792.15 446.00 807.00 C 460.30 821.85 472.00 834.00 472.00 834.00 L 472.00 834.00 C 466.11 828.11 465.96 828.07 465.00 830.00 C 464.45 831.10 464.00 832.00 464.00 832.00 L 464.00 832.00 C 462.45 832.00 461.77 832.00 461.50 832.00 C 461.23 832.00 461.00 832.00 461.00 832.00 L 461.00 832.00 C 450.15 821.92 441.82 814.05 435.50 808.00 C 429.18 801.95 415.68 788.90 405.50 779.00 C 395.32 769.10 374.18 748.40 358.50 733.00 C 342.82 717.60 321.00 696.45 310.00 686.00 C 293.54 670.37 288.41 664.78 281.00 654.50 C 276.05 647.62 272.00 642.00 272.00 642.00 L 272.00 642.00 C 270.45 638.90 269.77 638.00 269.50 638.00 C 269.23 638.00 269.00 638.00 269.00 638.00 L 269.00 638.00 C 268.23 638.00 268.00 637.55 268.00 637.00 C 268.00 636.45 268.00 636.00 268.00 636.00 L 268.00 636.00 C 266.45 632.90 265.77 632.00 265.50 632.00 C 265.23 632.00 265.00 632.00 265.00 632.00 L 265.00 632.00 C 258.80 621.92 255.65 616.08 254.00 612.50 C 252.35 608.92 251.00 606.00 251.00 606.00 L 251.00 606.00 C 251.00 602.90 250.55 601.55 250.00 601.00 C 249.45 600.45 249.00 600.00 249.00 600.00 L 249.00 600.00 L 249.00 600.00 C 249.00 600.00 248.78 598.42 248.50 596.50 C 248.22 594.58 247.55 592.77 247.00 592.50 C 246.45 592.23 246.00 591.33 246.00 590.50 C 246.00 589.67 245.10 586.98 244.00 584.50 C 242.90 582.02 241.55 577.98 240.00 571.00 L 240.00 571.00 C 240.00 571.00 239.55 567.85 239.00 564.00 C 238.45 560.15 238.22 549.80 238.50 541.00 C 238.86 529.39 239.69 521.71 241.50 513.00 C 242.88 506.40 245.57 496.50 247.50 491.00 C 249.43 485.50 252.35 478.52 257.00 470.00 L 257.00 470.00 C 257.00 470.00 257.90 470.23 259.00 470.50 C 260.33 470.83 261.33 470.33 262.00 469.00 C 262.55 467.90 266.38 462.27 270.50 456.50 C 274.62 450.73 283.18 440.82 289.50 434.50 C 295.82 428.18 304.82 420.07 309.50 416.50 C 314.18 412.93 322.73 407.07 328.50 403.50 C 334.27 399.93 343.73 394.75 349.50 392.00 C 355.27 389.25 364.50 385.20 370.00 383.00 C 375.50 380.80 385.62 377.20 392.50 375.00 C 399.38 372.80 411.52 369.65 419.50 368.00 C 427.48 366.35 440.07 364.32 447.50 363.50 C 455.75 362.58 470.33 362.00 485.00 362.00 C 498.20 362.00 514.40 362.45 521.00 363.00 C 527.60 363.55 533.23 363.77 533.50 363.50 C 533.77 363.23 533.77 362.77 533.00 362.00 Z" fill-rule="evenodd"/>
	<path fill="#BEBECC39" d="M 538.00 364.00 L 538.00 364.00 C 538.00 364.00 541.83 365.12 546.50 366.50 C 551.17 367.88 555.23 369.23 556.00 370.00 C 555.23 370.00 554.77 370.00 554.50 370.00 C 554.23 370.00 554.00 370.00 554.00 370.00 L 554.00 370.00 C 546.25 368.45 541.98 368.00 539.50 368.00 C 537.02 368.00 530.73 369.12 525.50 370.50 C 520.27 371.88 510.38 375.70 503.50 379.00 C 496.62 382.30 486.95 387.70 482.00 391.00 C 477.05 394.30 467.60 402.18 461.00 408.50 C 454.40 414.82 445.40 424.73 441.00 430.50 C 436.60 436.27 430.75 445.50 428.00 451.00 C 425.25 456.50 421.43 464.60 419.50 469.00 C 417.57 473.40 414.65 482.62 413.00 489.50 C 410.50 499.90 409.92 504.77 409.50 518.50 C 409.14 530.53 409.41 537.44 410.50 544.00 C 411.32 548.95 413.12 556.60 414.50 561.00 C 415.88 565.40 418.35 571.70 420.00 575.00 C 421.65 578.30 425.02 584.15 427.50 588.00 C 429.98 591.85 434.70 597.92 438.00 601.50 C 441.30 605.08 446.48 609.80 449.50 612.00 C 452.52 614.20 458.15 617.80 462.00 620.00 C 465.85 622.20 471.93 625.12 475.50 626.50 C 479.07 627.88 486.05 629.90 491.00 631.00 C 495.95 632.10 503.15 633.00 507.00 633.00 C 510.85 633.00 518.05 632.33 523.00 631.50 C 527.95 630.67 535.38 628.88 539.50 627.50 C 543.62 626.12 551.05 623.20 556.00 621.00 C 560.95 618.80 568.83 614.75 573.50 612.00 C 578.17 609.25 582.00 607.00 582.00 607.00 L 582.00 607.00 L 582.00 607.00 C 582.00 607.00 581.10 608.35 580.00 610.00 C 578.90 611.65 575.30 614.58 572.00 616.50 C 568.70 618.42 560.38 622.02 553.50 624.50 C 546.62 626.98 541.00 629.45 541.00 631.00 C 533.25 632.55 530.10 633.67 529.00 634.50 C 527.90 635.33 527.00 636.00 527.00 636.00 L 527.00 636.00 L 527.00 636.00 C 527.00 636.00 523.85 636.00 520.00 636.00 C 516.15 636.00 508.50 635.55 503.00 635.00 C 497.50 634.45 489.62 633.10 485.50 632.00 C 481.38 630.90 474.18 628.20 469.50 626.00 C 464.82 623.80 458.52 620.42 455.50 618.50 C 452.48 616.58 446.62 612.08 442.50 608.50 C 438.26 604.82 432.39 598.31 429.00 593.50 C 425.70 588.83 420.75 580.27 418.00 574.50 C 415.25 568.73 411.88 559.73 410.50 554.50 C 409.12 549.27 407.55 540.27 407.00 534.50 C 406.33 527.50 406.33 520.17 407.00 512.50 C 407.60 505.62 409.41 495.57 411.50 487.50 C 413.43 480.07 417.02 469.50 419.50 464.00 C 421.98 458.50 425.80 451.07 428.00 447.50 C 430.20 443.93 434.70 436.95 438.00 432.00 C 441.85 426.22 448.83 418.17 457.50 409.50 C 466.17 400.83 474.22 393.85 480.00 390.00 C 484.95 386.70 495.07 381.07 516.00 371.00 L 516.00 371.00 C 516.00 371.00 519.60 370.10 524.00 369.00 C 528.40 367.90 532.90 366.32 534.00 365.50 C 535.10 364.68 536.45 364.00 538.00 364.00 Z" fill-rule="evenodd"/>
	<path fill="#D9DADB1F" d="M 554.00 370.00 L 554.00 370.00 C 554.00 370.00 554.23 370.00 554.50 370.00 C 554.77 370.00 555.23 370.00 556.00 370.00 L 556.00 370.00 C 556.00 370.00 559.38 371.35 563.50 373.00 C 567.62 374.65 574.15 377.80 578.00 380.00 C 581.85 382.20 588.60 386.48 593.00 389.50 C 597.86 392.84 604.14 398.54 617.00 413.00 C 617.00 413.77 617.67 414.45 618.50 415.00 C 619.33 415.55 620.00 416.00 620.00 416.00 L 620.00 416.00 L 620.00 416.00 C 620.00 416.00 622.25 419.82 625.00 424.50 C 627.75 429.18 630.90 435.02 632.00 437.50 C 633.10 439.98 635.12 445.15 636.50 449.00 C 637.88 452.85 639.67 459.82 640.50 464.50 C 641.33 469.18 642.23 475.48 643.00 484.00 L 643.00 484.00 C 643.00 484.00 643.00 484.68 643.00 485.50 C 643.00 486.32 642.77 487.00 642.00 487.00 C 640.45 473.05 639.33 465.62 638.50 461.50 C 637.67 457.38 635.20 449.50 633.00 444.00 C 630.80 438.50 627.20 430.85 625.00 427.00 C 622.80 423.15 618.98 417.30 616.50 414.00 C 614.02 410.70 608.85 405.07 605.00 401.50 C 601.15 397.93 594.62 392.52 590.50 389.50 C 586.38 386.48 579.85 382.43 576.00 380.50 C 572.15 378.57 565.62 375.43 561.50 373.50 C 557.38 371.57 554.00 370.00 554.00 370.00 L 554.00 370.00 Z" fill-rule="evenodd"/>
	<path fill="#C3C5E6" d="M 496.00 376.00 L 496.00 376.00 C 496.00 376.00 492.62 377.35 488.50 379.00 C 484.38 380.65 475.38 384.93 468.50 388.50 C 461.62 392.07 451.50 397.93 446.00 401.50 C 440.50 405.07 433.30 410.02 430.00 412.50 C 426.70 414.98 419.95 420.60 415.00 425.00 C 410.05 429.40 401.27 437.95 395.50 444.00 C 389.73 450.05 381.62 459.50 377.50 465.00 C 373.38 470.50 367.07 479.95 363.50 486.00 C 359.93 492.05 355.65 499.70 354.00 503.00 C 352.35 506.30 348.98 513.95 346.50 520.00 C 344.02 526.05 340.43 537.08 338.50 544.50 C 336.57 551.92 334.32 563.62 333.50 570.50 C 332.68 577.38 332.00 586.83 332.00 591.50 C 332.00 596.17 332.45 604.50 333.00 610.00 C 333.55 615.50 334.68 623.38 335.50 627.50 C 336.32 631.62 338.35 639.50 340.00 645.00 C 341.65 650.50 345.25 660.17 348.00 666.50 C 350.75 672.83 355.48 682.50 358.50 688.00 C 361.52 693.50 368.05 704.08 373.00 711.50 C 377.95 718.92 384.93 728.83 388.50 733.50 C 392.07 738.17 398.15 745.83 402.00 750.50 C 405.85 755.17 414.62 765.52 421.50 773.50 C 428.38 781.48 439.62 794.08 446.50 801.50 C 453.38 808.92 465.30 821.52 487.00 844.00 C 486.14 846.59 484.09 845.23 479.00 840.50 C 475.15 836.92 472.00 834.00 472.00 834.00 L 472.00 834.00 L 472.00 834.00 C 472.00 834.00 460.30 821.85 446.00 807.00 C 431.70 792.15 415.05 774.60 409.00 768.00 C 402.95 761.40 393.27 750.38 387.50 743.50 C 381.73 736.62 373.85 726.50 370.00 721.00 C 366.15 715.50 359.62 705.83 355.50 699.50 C 351.38 693.17 345.98 683.95 343.50 679.00 C 341.02 674.05 336.98 664.83 334.50 658.50 C 332.02 652.17 329.10 643.40 328.00 639.00 C 326.90 634.60 325.32 627.17 324.50 622.50 C 323.68 617.83 322.77 609.27 322.50 603.50 C 322.23 597.73 322.45 587.15 323.00 580.00 C 323.55 572.85 324.68 563.40 325.50 559.00 C 326.32 554.60 328.35 546.27 330.00 540.50 C 331.65 534.73 334.80 525.50 337.00 520.00 C 339.20 514.50 342.57 506.85 344.50 503.00 C 346.43 499.15 350.70 491.50 354.00 486.00 C 357.30 480.50 363.82 470.82 368.50 464.50 C 373.18 458.18 380.60 448.95 385.00 444.00 C 389.40 439.05 397.73 430.95 403.50 426.00 C 409.27 421.05 418.05 413.85 423.00 410.00 C 427.95 406.15 436.27 400.52 441.50 397.50 C 446.73 394.48 454.60 390.20 459.00 388.00 C 463.40 385.80 472.40 381.98 479.00 379.50 C 486.42 376.72 491.95 375.19 496.00 376.00 Z" fill-rule="evenodd"/>
	<path fill="#FFFFFF05" d="M 570.50 411.00 C 571.33 411.00 572.23 411.45 572.50 412.00 C 572.77 412.55 572.10 413.00 571.00 413.00 C 569.90 413.00 569.00 412.55 569.00 412.00 C 569.00 411.45 569.67 411.00 570.50 411.00 Z" fill-rule="evenodd"/>
	<path fill="#67676C5B" d="M 617.00 413.00 L 617.00 413.00 C 617.00 413.00 617.67 413.45 618.50 414.00 C 619.33 414.55 620.00 415.23 620.00 416.00 L 620.00 416.00 C 620.00 416.00 619.33 415.55 618.50 415.00 C 617.67 414.45 617.00 413.77 617.00 413.00 Z" fill-rule="evenodd"/>
	<path fill="#B2B4D8" d="M 772.00 418.00 L 772.00 418.00 C 772.00 418.00 771.77 425.43 771.50 434.50 C 771.15 445.98 770.39 453.59 769.00 459.50 C 767.90 464.18 765.88 471.60 764.50 476.00 C 763.12 480.40 760.20 487.82 758.00 492.50 C 755.80 497.18 751.75 504.82 749.00 509.50 C 746.25 514.17 740.85 522.05 737.00 527.00 C 733.15 531.95 726.62 539.83 722.50 544.50 C 718.38 549.17 710.50 556.83 705.00 561.50 C 699.50 566.17 690.73 573.38 685.50 577.50 C 680.27 581.62 670.60 588.38 664.00 592.50 C 657.40 596.62 645.02 603.60 636.50 608.00 C 627.98 612.40 616.27 617.80 610.50 620.00 C 604.73 622.20 594.83 625.58 588.50 627.50 C 582.17 629.42 572.50 631.90 567.00 633.00 C 561.50 634.10 551.38 635.45 544.50 636.00 C 537.62 636.55 530.88 636.77 527.00 636.00 L 527.00 636.00 C 527.00 636.00 527.90 635.33 529.00 634.50 C 530.10 633.67 533.25 632.55 541.00 631.00 L 541.00 631.00 C 541.00 631.00 545.05 630.33 550.00 629.50 C 554.95 628.67 564.85 626.42 572.00 624.50 C 579.15 622.58 589.50 619.42 595.00 617.50 C 600.50 615.58 610.85 611.30 618.00 608.00 C 625.15 604.70 635.50 599.52 641.00 596.50 C 646.50 593.48 655.50 588.08 661.00 584.50 C 666.50 580.92 674.38 575.52 678.50 572.50 C 682.62 569.48 690.73 562.95 696.50 558.00 C 702.27 553.05 710.60 545.17 715.00 540.50 C 719.40 535.83 725.70 528.62 729.00 524.50 C 732.30 520.38 737.48 513.17 740.50 508.50 C 743.52 503.82 748.25 495.50 751.00 490.00 C 753.75 484.50 757.12 476.85 758.50 473.00 C 759.88 469.15 762.35 461.05 764.00 455.00 C 765.65 448.95 767.45 440.18 768.00 435.50 C 768.55 430.82 769.00 424.30 769.00 421.00 C 769.00 417.67 769.44 415.00 770.00 415.00 C 770.55 415.00 771.00 415.68 771.00 416.50 C 771.00 417.32 771.23 418.00 772.00 418.00 Z" fill-rule="evenodd"/>
	<path fill="#C5C5DB47" d="M 642.00 495.00 L 642.00 495.00 C 642.00 495.00 642.00 499.95 642.00 506.00 C 642.00 513.50 641.36 519.70 640.00 525.50 C 638.90 530.17 636.88 536.92 635.50 540.50 C 634.12 544.08 631.65 549.92 630.00 553.50 C 628.35 557.08 626.33 560.90 625.50 562.00 C 624.67 563.10 624.23 563.33 624.50 562.50 C 624.77 561.67 624.77 561.00 624.50 561.00 C 624.23 561.00 623.77 561.23 623.00 562.00 C 628.42 551.92 631.35 545.62 633.00 541.50 C 634.65 537.38 636.90 530.17 638.00 525.50 C 639.10 520.83 640.45 512.05 641.00 506.00 C 641.55 499.95 642.00 495.00 642.00 495.00 L 642.00 495.00 Z" fill-rule="evenodd"/>
	<path fill="#DCD9EC36" d="M 248.00 600.00 L 248.00 600.00 C 248.00 600.00 248.22 600.00 249.00 600.00 L 249.00 600.00 C 249.00 600.00 249.45 600.45 250.00 601.00 C 250.55 601.55 251.00 602.90 251.00 606.00 C 250.22 606.00 249.55 604.65 249.00 603.00 C 248.45 601.35 248.00 600.00 248.00 600.00 L 248.00 600.00 Z" fill-rule="evenodd"/>
	<path fill="#F2F2FF14" d="M 265.00 632.00 L 265.00 632.00 C 265.00 632.00 265.23 632.00 265.50 632.00 C 265.77 632.00 266.45 632.90 268.00 636.00 C 267.23 636.00 266.55 635.10 266.00 634.00 C 265.45 632.90 265.00 632.00 265.00 632.00 L 265.00 632.00 Z" fill-rule="evenodd"/>
	<path fill="#F1F1FF12" d="M 269.00 638.00 L 269.00 638.00 C 269.00 638.00 269.23 638.00 269.50 638.00 C 269.77 638.00 270.45 638.90 272.00 642.00 C 271.23 642.00 270.55 641.10 270.00 640.00 C 269.45 638.90 269.00 638.00 269.00 638.00 L 269.00 638.00 Z" fill-rule="evenodd"/>
	<path fill="#51538CFE" d="M 472.00 834.00 L 472.00 834.00 C 472.00 834.00 475.15 836.92 479.00 840.50 C 484.09 845.23 486.14 846.59 487.00 844.00 L 487.00 844.00 C 487.00 844.00 493.52 850.75 501.50 859.00 C 509.48 867.25 516.67 874.00 519.00 874.00 L 519.00 874.00 C 519.00 874.00 518.10 874.23 517.00 874.50 C 515.90 874.77 512.98 874.55 506.00 873.00 C 486.62 854.40 477.18 845.17 472.50 840.50 C 467.82 835.83 464.00 832.00 464.00 832.00 L 464.00 832.00 L 464.00 832.00 C 464.00 832.00 464.45 831.10 465.00 830.00 C 465.96 828.07 466.11 828.11 472.00 834.00 Z" fill-rule="evenodd"/>
	<path fill="#8485AB81" d="M 461.00 832.00 L 461.00 832.00 C 461.00 832.00 461.23 832.00 461.50 832.00 C 461.77 832.00 462.45 832.00 464.00 832.00 L 464.00 832.00 C 464.00 832.00 467.82 835.83 472.50 840.50 C 477.18 845.17 486.62 854.40 506.00 873.00 L 506.00 873.00 C 506.00 873.00 505.55 872.55 505.00 872.00 C 504.45 871.45 503.55 871.00 502.00 871.00 C 500.45 871.00 491.23 862.23 480.50 851.50 C 469.77 840.77 461.00 832.00 461.00 832.00 L 461.00 832.00 Z" fill-rule="evenodd"/>
</svg>
